<svg width="56" height="79" viewBox="0 0 56 79" fill="none" xmlns="http://www.w3.org/2000/svg">
<path d="M27.8348 79L5.07258 72.6548L0 15.5254H55.7378L50.66 72.646L27.8348 79V79Z" fill="#264DE4"/>
<path d="M46.3128 69.0087L50.6519 20.1964H27.8689V74.1431L46.3128 69.0087V69.0087Z" fill="#2965F1"/>
<path d="M11.6287 41.385L12.254 48.3917H27.8689V41.385H11.6287ZM10.3719 27.2034L11.0062 34.2101H27.8689V27.2034H10.3719V27.2034ZM27.8689 59.5822L27.8383 59.5903L20.0672 57.4832L19.5704 51.8951H12.5658L13.5433 62.8967L27.8368 66.8809L27.8689 66.8721V59.5822Z" fill="#EBEBEB"/>
<path d="M13.1177 0H21.5687V3.54887H16.6519V7.09773H21.5691V10.6464H13.1177V0ZM23.2591 0H31.7103V3.08595H26.7933V3.7031H31.7103V10.8008H23.2593V7.56021H28.1763V6.94306H23.2589V0H23.2591ZM33.4008 0H41.852V3.08595H36.935V3.7031H41.852V10.8008H33.4008V7.56021H38.3178V6.94306H33.401V0H33.4008Z" fill="black"/>
<path d="M44.0645 41.385L45.3241 27.2034H27.8448V34.2101H37.6771L37.0422 41.385H27.8448V48.3917H36.4372L35.6271 57.4789L27.8446 59.5881V66.8776L42.1495 62.8967L42.2544 61.7129L43.8943 43.2665L44.0645 41.385V41.385Z" fill="white"/>
</svg>
