<svg width="57" height="79" viewBox="0 0 57 79" fill="none" xmlns="http://www.w3.org/2000/svg">
<path d="M56.0545 15.5254L50.9478 72.646L27.993 79L5.1014 72.6548L0 15.5254H56.0545Z" fill="#E44D26"/>
<path d="M28.0272 74.1431L46.5759 69.0087L50.9397 20.1964H28.0272V74.1431Z" fill="#F16529"/>
<path d="M18.0999 34.2101H28.0272V27.2034H10.4308L10.5987 29.0831L12.3235 48.3917H28.0272V41.385H18.7413L18.0999 34.2101V34.2101ZM19.6815 51.8951H12.6371L13.6201 62.8967L27.9949 66.8809L28.0272 66.8721V59.5822L27.9964 59.5903L20.1812 57.4833L19.6815 51.8951Z" fill="#EBEBEB"/>
<path d="M5.21521 0H8.78138V3.51793H12.0437V0H15.61V10.6532H12.0439V7.08588H8.7816V10.6532H5.21543V0H5.21521ZM20.2995 3.53285H17.1604V0H27.0073V3.53285H23.8663V10.6532H20.3001V3.53285H20.2999H20.2995ZM28.57 0H32.2884L34.5758 3.74325L36.8609 0H40.5809V10.6532H37.0292V5.37288L34.5758 9.16066H34.5142L32.0592 5.37288V10.6532H28.57V0ZM42.3556 0H45.9229V7.13196H50.9379V10.6532H42.3554V0H42.3556Z" fill="black"/>
<path d="M28.003 48.3917H36.6442L35.8295 57.4789L28.0028 59.5881V66.8776L42.389 62.8967L42.4944 61.7129L44.1437 43.2665L44.3149 41.385H28.003V48.3917ZM28.003 34.1929V34.2101H44.9534L45.094 32.6353L45.414 29.0831L45.5816 27.2034H28.003V34.1932V34.1929Z" fill="white"/>
</svg>
