<svg width="75" height="79" viewBox="0 0 75 79" fill="none" xmlns="http://www.w3.org/2000/svg">
<path d="M0 0H74.0625V79H0V0Z" fill="#F5DE19"/>
<path d="M49.7512 61.7185C50.3822 63.0857 51.3626 64.235 52.5794 65.0337C53.7961 65.8324 55.1997 66.248 56.6284 66.2328C59.5115 66.2328 61.3552 64.6951 61.3552 62.5649C61.3552 60.0256 59.4613 59.1171 56.2872 57.6359L54.5467 56.8402C49.521 54.5577 46.1882 51.6996 46.1882 45.6561C46.1882 40.0894 50.1559 35.8488 56.3798 35.8488C58.3945 35.6936 60.4076 36.1746 62.1677 37.2318C63.9279 38.289 65.3573 39.8755 66.2777 41.7936L60.8367 45.5037C60.4823 44.5527 59.8653 43.739 59.0674 43.1706C58.2695 42.6023 57.3285 42.306 56.3692 42.3212C55.9506 42.2765 55.5279 42.3253 55.128 42.4645C54.7281 42.6036 54.3598 42.8302 54.0465 43.1296C53.7332 43.429 53.4818 43.7947 53.3083 44.2035C53.1349 44.6122 53.0432 45.0551 53.039 45.5037C53.039 47.7299 54.3325 48.6327 57.3188 50.018L59.0592 50.8137C64.9736 53.5194 68.317 56.276 68.317 62.4746C68.317 69.1586 63.3945 72.8208 56.7844 72.8208C54.2089 72.9959 51.641 72.3721 49.3904 71.0249C47.1399 69.6777 45.3029 67.6645 44.1012 65.2283L49.7512 61.7185ZM25.165 62.3618C26.2575 64.4299 27.252 66.1792 29.6432 66.1792C31.9285 66.1792 33.3728 65.2255 33.3728 61.5153V36.272H40.332V61.6141C40.332 69.2997 36.0998 72.7982 29.9394 72.7982C27.7619 72.9252 25.5992 72.3464 23.7359 71.1378C21.8725 69.9292 20.3956 68.1475 19.4993 66.0268L25.165 62.3618Z" fill="black"/>
</svg>
