<svg width="103" height="62" viewBox="0 0 103 62" fill="none" xmlns="http://www.w3.org/2000/svg">
<path d="M51.5 0C37.7668 0 29.1832 6.88902 25.75 20.6667C30.9 13.7776 36.9082 11.1943 43.775 12.9167C47.6926 13.8991 50.4929 16.7509 53.5926 19.907C58.642 25.049 64.4856 31 77.25 31C90.9832 31 99.5668 24.111 103 10.3333C97.85 17.2224 91.8418 19.8057 84.975 18.0833C81.0574 17.1009 78.2571 14.2491 75.1574 11.093C70.108 5.95095 64.2644 0 51.5 0ZM25.75 31C12.0168 31 3.4332 37.889 0 51.6667C5.15 44.7776 11.1582 42.1943 18.025 43.9167C21.9426 44.8991 24.7429 47.7509 27.8426 50.907C32.892 56.049 38.7356 62 51.5 62C65.2332 62 73.8168 55.111 77.25 41.3333C72.1 48.2224 66.0918 50.8057 59.225 49.0833C55.3074 48.1009 52.5071 45.2491 49.4074 42.093C44.358 36.9509 38.5144 31 25.75 31Z" fill="url(#paint0_linear_113_18)"/>
<defs>
<linearGradient id="paint0_linear_113_18" x1="-2.86134" y1="19.84" x2="86.2392" y2="71.0481" gradientUnits="userSpaceOnUse">
<stop stop-color="#2298BD"/>
<stop offset="1" stop-color="#0ED7B5"/>
</linearGradient>
</defs>
</svg>
