<svg width="55" height="30" viewBox="0 0 55 30" fill="none" xmlns="http://www.w3.org/2000/svg">
<path d="M39.32 8.06V16.88C39.32 18.12 39.62 19.04 40.22 19.64C40.8333 20.24 41.68 20.54 42.76 20.54C43.8267 20.54 44.66 20.24 45.26 19.64C45.8733 19.04 46.18 18.12 46.18 16.88V8.06H48V16.86C48 18.02 47.7667 19 47.3 19.8C46.8333 20.5867 46.2 21.1733 45.4 21.56C44.6133 21.9467 43.7267 22.14 42.74 22.14C41.7533 22.14 40.86 21.9467 40.06 21.56C39.2733 21.1733 38.6467 20.5867 38.18 19.8C37.7267 19 37.5 18.02 37.5 16.86V8.06H39.32ZM52.8561 8.06V22H51.0361V8.06H52.8561Z" fill="black"/>
<rect y="1" width="28" height="28" rx="5" fill="black"/>
<path d="M13.26 8C14.74 8 16.0333 8.29333 17.14 8.88C18.2467 9.46667 19.1 10.2933 19.7 11.36C20.3133 12.4133 20.62 13.6333 20.62 15.02C20.62 16.3933 20.3133 17.6133 19.7 18.68C19.1 19.7467 18.24 20.5733 17.12 21.16C16.0133 21.7467 14.7267 22.04 13.26 22.04H8V8H13.26ZM13.04 19.08C14.3333 19.08 15.34 18.7267 16.06 18.02C16.78 17.3133 17.14 16.3133 17.14 15.02C17.14 13.7267 16.78 12.72 16.06 12C15.34 11.28 14.3333 10.92 13.04 10.92H11.42V19.08H13.04Z" fill="white"/>
</svg>
