<svg width="22" height="20" viewBox="0 0 22 20" fill="none" xmlns="http://www.w3.org/2000/svg">
<path d="M21.5607 14.3114L13.886 1.5836C13.5756 1.09812 13.1481 0.698577 12.6427 0.421821C12.1373 0.145065 11.5704 0 10.9942 0C10.418 0 9.85106 0.145065 9.34568 0.421821C8.8403 0.698577 8.41273 1.09812 8.1024 1.5836L0.427668 14.3114C0.156555 14.7634 0.00919932 15.2787 0.000416937 15.8057C-0.00836545 16.3326 0.121735 16.8526 0.377637 17.3133C0.673499 17.8319 1.10174 18.2626 1.6186 18.5615C2.13546 18.8603 2.72241 19.0166 3.31945 19.0143H18.6689C19.262 19.0207 19.8463 18.8704 20.3628 18.5788C20.8793 18.2872 21.3098 17.8645 21.6107 17.3533C21.8741 16.8878 22.0084 16.3604 21.9996 15.8256C21.9908 15.2908 21.8393 14.768 21.5607 14.3114V14.3114ZM19.8596 16.3627C19.7394 16.5694 19.5649 16.7393 19.355 16.8539C19.1451 16.9686 18.9078 17.0236 18.6689 17.0131H3.31945C3.08052 17.0236 2.84327 16.9686 2.63339 16.8539C2.4235 16.7393 2.24898 16.5694 2.12872 16.3627C2.04089 16.2106 1.99466 16.038 1.99466 15.8624C1.99466 15.6868 2.04089 15.5142 2.12872 15.3621L9.81345 2.62424C9.95154 2.44183 10.13 2.2939 10.3349 2.19205C10.5397 2.09019 10.7654 2.03719 10.9942 2.03719C11.223 2.03719 11.4486 2.09019 11.6535 2.19205C11.8583 2.2939 12.0368 2.44183 12.1749 2.62424L19.8496 15.3521C19.9408 15.5045 19.9898 15.6784 19.9916 15.856C19.9934 16.0336 19.9478 16.2085 19.8596 16.3627V16.3627Z" fill="#686868"/>
<path d="M10.9942 15.0119C11.5468 15.0119 11.9948 14.5639 11.9948 14.0112C11.9948 13.4586 11.5468 13.0106 10.9942 13.0106C10.4416 13.0106 9.99359 13.4586 9.99359 14.0112C9.99359 14.5639 10.4416 15.0119 10.9942 15.0119Z" fill="#686868"/>
<path d="M10.9942 6.00635C10.7288 6.00635 10.4743 6.11177 10.2867 6.29942C10.099 6.48707 9.99359 6.74158 9.99359 7.00696V11.0094C9.99359 11.2748 10.099 11.5293 10.2867 11.717C10.4743 11.9046 10.7288 12.01 10.9942 12.01C11.2596 12.01 11.5141 11.9046 11.7018 11.717C11.8894 11.5293 11.9948 11.2748 11.9948 11.0094V7.00696C11.9948 6.74158 11.8894 6.48707 11.7018 6.29942C11.5141 6.11177 11.2596 6.00635 10.9942 6.00635Z" fill="#686868"/>
</svg>
