<svg width="20" height="22" viewBox="0 0 20 22" fill="none" xmlns="http://www.w3.org/2000/svg">
<path d="M17.3352 10.1481V9.99815H17.1852H15.7778H15.6278V10.1481V12.2593V12.2593C15.6278 12.4857 15.7178 12.7028 15.8779 12.8628C15.8779 12.8628 15.8779 12.8629 15.8779 12.8629L17.7389 14.7238V15.6278H2.55741V14.7238L4.41838 12.8629C4.41839 12.8629 4.41839 12.8628 4.4184 12.8628C4.5785 12.7028 4.66847 12.4857 4.66852 12.2593V12.2593L4.66852 9.44444L4.66852 9.44414C4.66661 8.48169 4.91872 7.53578 5.39938 6.70195C5.88005 5.86812 6.57225 5.17589 7.40606 4.6952C8.23988 4.2145 9.18578 3.96236 10.1482 3.96424C11.1107 3.96611 12.0556 4.22194 12.8875 4.70588L13.113 4.83701V4.57622V3.00344V2.90581L13.0237 2.86629C12.3807 2.58161 11.6994 2.39392 11.0018 2.30915V1V0.85H10.8518H9.44444H9.29444V1V2.30837C7.57423 2.51625 5.98498 3.3382 4.82061 4.62547C3.62588 5.94632 2.96334 7.66324 2.96111 9.44425V9.44444V11.9058L1.10014 13.7668C0.940023 13.9268 0.850048 14.1439 0.85 14.3703V14.3704V16.4815C0.85 16.7079 0.939943 16.925 1.10004 17.0851C1.26014 17.2452 1.47729 17.3352 1.7037 17.3352H6.47963V17.8889C6.47963 18.8618 6.86613 19.7949 7.55411 20.4829C8.24209 21.1709 9.17519 21.5574 10.1481 21.5574C11.1211 21.5574 12.0542 21.1709 12.7422 20.4829C13.4302 19.7949 13.8167 18.8618 13.8167 17.8889V17.3352H18.5926C18.819 17.3352 19.0361 17.2452 19.1962 17.0851C19.3563 16.925 19.4463 16.7079 19.4463 16.4815V14.3704V14.3703C19.4462 14.1439 19.3563 13.9268 19.1962 13.7668L17.3352 11.9058V10.1481ZM12.1093 17.8889C12.1093 18.409 11.9026 18.9078 11.5349 19.2756C11.1671 19.6434 10.6683 19.85 10.1481 19.85C9.62803 19.85 9.12921 19.6434 8.76143 19.2756C8.39365 18.9078 8.18704 18.409 8.18704 17.8889V17.3352H12.1093V17.8889Z" fill="#686868" stroke="#686868" stroke-width="0.3"/>
<path d="M17.1852 8.74071C18.7398 8.74071 20 7.48048 20 5.9259C20 4.37132 18.7398 3.11108 17.1852 3.11108C15.6306 3.11108 14.3704 4.37132 14.3704 5.9259C14.3704 7.48048 15.6306 8.74071 17.1852 8.74071Z" fill="#686868"/>
</svg>
