<svg width="19" height="19" viewBox="0 0 19 19" fill="none" xmlns="http://www.w3.org/2000/svg">
<path d="M1.96662 1.96662C1.28367 2.64956 0.9 3.57584 0.9 4.54167V14.4583C0.9 15.4242 1.28367 16.3504 1.96662 17.0334C2.64956 17.7163 3.57584 18.1 4.54167 18.1H14.4583C15.4242 18.1 16.3504 17.7163 17.0334 17.0334C17.7163 16.3504 18.1 15.4242 18.1 14.4583V4.54167C18.1 3.57584 17.7163 2.64956 17.0334 1.96662C16.3504 1.28367 15.4242 0.9 14.4583 0.9H4.54167C3.57584 0.9 2.64956 1.28367 1.96662 1.96662ZM12.2333 13.85V16.4833H6.76667V13.85H12.2333ZM2.51667 14.4583V13.85H5.15V16.4833H4.54167C4.0046 16.4833 3.48954 16.27 3.10978 15.8902C2.73001 15.5105 2.51667 14.9954 2.51667 14.4583ZM12.2333 6.76667V12.2333H6.76667V6.76667H12.2333ZM2.51667 12.2333V6.76667H5.15V12.2333H2.51667ZM12.2333 2.51667V5.15H6.76667V2.51667H12.2333ZM4.54167 2.51667H5.15V5.15H2.51667V4.54167C2.51667 4.0046 2.73001 3.48954 3.10978 3.10978C3.48954 2.73001 4.0046 2.51667 4.54167 2.51667ZM13.85 12.2333V6.76667H16.4833V12.2333H13.85ZM13.85 16.4833V13.85H16.4833V14.4583C16.4833 14.9954 16.27 15.5105 15.8902 15.8902C15.5105 16.27 14.9954 16.4833 14.4583 16.4833H13.85ZM16.4833 4.54167V5.15H13.85V2.51667H14.4583C14.9954 2.51667 15.5105 2.73001 15.8902 3.10978C16.27 3.48954 16.4833 4.0046 16.4833 4.54167Z" fill="#686868" stroke="#686868" stroke-width="0.2"/>
</svg>
