<svg width="600" height="371" viewBox="0 0 600 371" fill="none" xmlns="http://www.w3.org/2000/svg">
<path fill-rule="evenodd" clip-rule="evenodd" d="M471.026 367.039C503.651 328.204 523.301 278.104 523.301 223.415C523.301 100.026 423.275 0 299.887 0C176.498 0 76.4717 100.026 76.4717 223.415C76.4717 278.104 96.1219 328.204 128.747 367.039H471.026Z" fill="#F0F3FC"/>
<g opacity="0.15">
<path fill-rule="evenodd" clip-rule="evenodd" d="M428.718 161.507C428.554 161.702 428.448 161.938 428.411 162.19L421.127 211.764C421.037 212.379 421.372 212.978 421.943 213.223L429.437 216.434C429.562 216.488 429.644 216.612 429.644 216.749V231.933C429.644 232.497 430.101 232.953 430.664 232.953C431.227 232.953 431.684 232.497 431.684 231.933V215.345C431.684 215.336 431.684 215.328 431.684 215.32L431.684 158.919C431.684 158.599 431.285 158.454 431.08 158.699L428.718 161.507Z" fill="#9D9FA4"/>
<path fill-rule="evenodd" clip-rule="evenodd" d="M428.718 160.487C428.554 160.682 428.448 160.918 428.411 161.17L421.127 210.745C421.037 211.359 421.372 211.958 421.943 212.203L429.437 215.414C429.562 215.468 429.644 215.592 429.644 215.729V230.913C429.644 231.477 430.101 231.933 430.664 231.933C431.227 231.933 431.684 231.477 431.684 230.913V214.325C431.684 214.317 431.684 214.309 431.684 214.3L431.684 157.899C431.684 157.58 431.285 157.434 431.08 157.679L428.718 160.487Z" fill="#BCBEC4"/>
<path fill-rule="evenodd" clip-rule="evenodd" d="M371.19 268.186C371.441 268.23 371.699 268.204 371.935 268.11L418.51 249.631C419.087 249.402 419.438 248.812 419.365 248.195L418.399 240.099C418.383 239.963 418.449 239.831 418.568 239.762L431.718 232.17C432.206 231.889 432.373 231.265 432.091 230.777C431.809 230.289 431.186 230.122 430.698 230.403L405.963 244.684C405.961 244.685 405.958 244.687 405.956 244.688L367.466 266.911C367.189 267.07 367.262 267.488 367.577 267.544L371.19 268.186Z" fill="#9D9FA4"/>
<path fill-rule="evenodd" clip-rule="evenodd" d="M370.68 267.676C370.931 267.72 371.189 267.694 371.425 267.6L418 249.121C418.577 248.891 418.928 248.302 418.855 247.685L417.889 239.589C417.873 239.453 417.939 239.321 418.058 239.252L431.208 231.66C431.696 231.379 431.863 230.755 431.581 230.267C431.3 229.779 430.676 229.612 430.188 229.893L415.813 238.193C415.809 238.195 415.805 238.198 415.801 238.2L366.956 266.401C366.679 266.56 366.752 266.978 367.067 267.034L370.68 267.676Z" fill="#BCBEC4"/>
<path fill-rule="evenodd" clip-rule="evenodd" d="M493.001 265.514C492.915 265.275 492.763 265.064 492.564 264.907L453.273 233.811C452.785 233.426 452.1 233.416 451.602 233.789L445.074 238.673C444.964 238.755 444.816 238.764 444.697 238.695L431.547 231.103C431.06 230.821 430.436 230.989 430.154 231.476C429.872 231.964 430.04 232.588 430.527 232.87L444.902 241.169C444.906 241.172 444.91 241.174 444.914 241.176L493.76 269.377C494.036 269.537 494.362 269.264 494.253 268.964L493.001 265.514Z" fill="#9D9FA4"/>
<path fill-rule="evenodd" clip-rule="evenodd" d="M493.001 264.493C492.915 264.254 492.763 264.044 492.564 263.886L453.273 232.791C452.785 232.406 452.1 232.396 451.602 232.769L445.074 237.653C444.964 237.735 444.816 237.744 444.697 237.675L431.547 230.083C431.06 229.801 430.436 229.968 430.154 230.456C429.872 230.944 430.04 231.568 430.527 231.85L444.902 240.149C444.906 240.152 444.91 240.154 444.914 240.156L493.76 268.357C494.036 268.517 494.362 268.244 494.253 267.944L493.001 264.493Z" fill="#BCBEC4"/>
<path fill-rule="evenodd" clip-rule="evenodd" d="M433.286 235.045C434.743 234.422 435.764 232.976 435.764 231.291C435.764 229.038 433.938 227.211 431.684 227.211C429.431 227.211 427.604 229.038 427.604 231.291C427.604 232.976 428.625 234.422 430.082 235.045L421.994 370.018H441.375L433.286 235.045Z" fill="#9D9FA4"/>
<path fill-rule="evenodd" clip-rule="evenodd" d="M432.266 235.045C433.723 234.422 434.744 232.976 434.744 231.291C434.744 229.038 432.917 227.211 430.664 227.211C428.411 227.211 426.584 229.038 426.584 231.291C426.584 232.976 427.605 234.422 429.062 235.045L420.974 370.018H440.354L432.266 235.045Z" fill="#BCBEC4"/>
</g>
<g opacity="0.6">
<rect x="82.4294" y="182.349" width="39.7884" height="93.8295" rx="19.8942" fill="#E9EBF2"/>
<rect x="101.433" y="220.356" width="2.37543" height="146.683" rx="1.18771" fill="#E1E2E5"/>
<rect x="111.233" y="225.572" width="2.37543" height="20.0225" rx="1.18771" transform="rotate(30 111.233 225.572)" fill="#E1E2E5"/>
<rect width="2.37543" height="28.1694" rx="1.18771" transform="matrix(0.866025 -0.5 -0.5 -0.866025 102.092 257.551)" fill="#E1E2E5"/>
</g>
<rect x="134.56" y="104.899" width="56.8954" height="134.171" rx="28.4477" fill="#E9EBF2"/>
<rect x="161.734" y="159.246" width="3.39674" height="209.749" rx="1.69837" fill="#E1E2E5"/>
<rect x="175.747" y="166.704" width="3.39674" height="28.6311" rx="1.69837" transform="rotate(30 175.747 166.704)" fill="#E1E2E5"/>
<rect width="3.39674" height="40.2808" rx="1.69837" transform="matrix(0.866025 -0.5 -0.5 -0.866025 162.675 212.433)" fill="#E1E2E5"/>
<path opacity="0.8" fill-rule="evenodd" clip-rule="evenodd" d="M203.073 77.9878C203.073 78.0904 203.072 78.1926 203.069 78.2945C209.456 78.453 214.585 83.6802 214.585 90.1053C214.585 96.5291 209.458 101.755 203.073 101.916V101.92H202.827C202.808 101.92 202.789 101.92 202.771 101.92C202.752 101.92 202.733 101.92 202.715 101.92H179.444V101.916C179.344 101.918 179.243 101.92 179.142 101.92C172.617 101.92 167.327 96.6302 167.327 90.1053C167.327 83.5803 172.617 78.2908 179.142 78.2908C179.244 78.2908 179.346 78.2921 179.448 78.2947C179.446 78.1927 179.444 78.0904 179.444 77.9878C179.444 71.4629 184.734 66.1733 191.259 66.1733C197.784 66.1733 203.073 71.4629 203.073 77.9878Z" fill="white"/>
<path opacity="0.6" fill-rule="evenodd" clip-rule="evenodd" d="M402.657 105.858C402.657 105.892 402.657 105.926 402.656 105.96C404.785 106.013 406.495 107.756 406.495 109.897C406.495 112.038 404.786 113.78 402.657 113.834V113.835H402.585C402.576 113.835 402.566 113.835 402.556 113.835C402.547 113.835 402.537 113.835 402.527 113.835H394.781V113.834C394.748 113.835 394.714 113.835 394.68 113.835C392.505 113.835 390.742 112.072 390.742 109.897C390.742 107.722 392.505 105.959 394.68 105.959C394.714 105.959 394.748 105.959 394.782 105.96C394.782 105.926 394.781 105.892 394.781 105.858C394.781 103.683 396.544 101.92 398.719 101.92C400.894 101.92 402.657 103.683 402.657 105.858Z" fill="white"/>
<path fill-rule="evenodd" clip-rule="evenodd" d="M297.205 33.1499C297.205 22.5976 305.76 14.0433 316.312 14.0433C324.143 14.0433 330.873 18.7541 333.824 25.4964C335.723 24.1529 338.042 23.3635 340.545 23.3635C346.434 23.3635 351.302 27.7325 352.085 33.4059H356.455C361.802 33.4059 366.136 37.7404 366.136 43.0872C366.136 48.4341 361.802 52.7685 356.455 52.7685H299.142C293.795 52.7685 289.46 48.4341 289.46 43.0872C289.46 38.4017 292.789 34.4936 297.211 33.5985C297.207 33.4494 297.205 33.2999 297.205 33.1499Z" fill="white"/>
<path opacity="0.6" fill-rule="evenodd" clip-rule="evenodd" d="M236.021 135.034C236.021 130.73 239.511 127.24 243.816 127.24C247.01 127.24 249.755 129.162 250.959 131.912C251.734 131.364 252.68 131.042 253.701 131.042C256.103 131.042 258.089 132.824 258.408 135.139H260.191C262.372 135.139 264.14 136.907 264.14 139.088C264.14 141.269 262.372 143.037 260.191 143.037H236.811C234.63 143.037 232.862 141.269 232.862 139.088C232.862 137.176 234.22 135.582 236.024 135.217C236.022 135.156 236.021 135.095 236.021 135.034Z" fill="white"/>
<path fill-rule="evenodd" clip-rule="evenodd" d="M471.547 42.1397C471.29 42.4457 471.123 42.8173 471.065 43.2129L459.611 121.168C459.469 122.135 459.996 123.076 460.894 123.461L472.678 128.511C472.876 128.596 473.004 128.791 473.004 129.006V152.883C473.004 153.769 473.722 154.487 474.608 154.487C475.494 154.487 476.212 153.769 476.212 152.883V126.781C476.212 126.774 476.212 126.767 476.212 126.76L476.212 38.0696C476.212 37.5672 475.585 37.3385 475.262 37.723L471.547 42.1397Z" fill="#DCDFE6"/>
<path fill-rule="evenodd" clip-rule="evenodd" d="M471.547 40.5357C471.29 40.8417 471.123 41.2134 471.065 41.609L459.611 119.564C459.469 120.531 459.996 121.472 460.894 121.857L472.678 126.907C472.876 126.992 473.004 127.187 473.004 127.402V151.279C473.004 152.165 473.722 152.883 474.608 152.883C475.494 152.883 476.212 152.165 476.212 151.279V125.177C476.212 125.17 476.212 125.163 476.212 125.156L476.212 36.4656C476.212 35.9632 475.585 35.7345 475.262 36.119L471.547 40.5357Z" fill="#E9EBF2"/>
<path fill-rule="evenodd" clip-rule="evenodd" d="M381.087 209.889C381.481 209.959 381.886 209.918 382.258 209.77L455.496 180.711C456.404 180.351 456.956 179.425 456.84 178.454L455.322 165.724C455.296 165.51 455.401 165.301 455.587 165.194L476.265 153.255C477.033 152.812 477.295 151.831 476.852 151.064C476.41 150.297 475.429 150.034 474.661 150.477L452.06 163.526C452.052 163.53 452.045 163.534 452.038 163.539L375.23 207.884C374.795 208.135 374.91 208.792 375.405 208.88L381.087 209.889Z" fill="#DCDFE6"/>
<path fill-rule="evenodd" clip-rule="evenodd" d="M380.285 209.087C380.679 209.157 381.084 209.116 381.456 208.968L454.694 179.909C455.602 179.549 456.154 178.623 456.038 177.652L454.52 164.922C454.494 164.708 454.599 164.499 454.785 164.392L475.463 152.453C476.231 152.01 476.493 151.029 476.05 150.262C475.608 149.495 474.627 149.232 473.859 149.675L451.258 162.724C451.25 162.728 451.243 162.732 451.236 162.737L374.428 207.082C373.993 207.333 374.108 207.99 374.603 208.078L380.285 209.087Z" fill="#E9EBF2"/>
<path fill-rule="evenodd" clip-rule="evenodd" d="M572.633 205.687C572.496 205.311 572.258 204.981 571.944 204.733L510.16 155.836C509.394 155.23 508.315 155.215 507.533 155.8L497.267 163.481C497.095 163.61 496.862 163.624 496.675 163.516L475.997 151.577C475.23 151.134 474.249 151.397 473.806 152.165C473.363 152.932 473.626 153.913 474.393 154.356L497.003 167.409C497.008 167.412 497.012 167.415 497.017 167.417L573.825 211.762C574.26 212.014 574.772 211.585 574.6 211.112L572.633 205.687Z" fill="#DCDFE6"/>
<path fill-rule="evenodd" clip-rule="evenodd" d="M572.633 204.083C572.496 203.707 572.258 203.377 571.944 203.129L510.16 154.232C509.394 153.626 508.315 153.611 507.533 154.196L497.267 161.877C497.095 162.006 496.862 162.02 496.675 161.912L475.997 149.973C475.23 149.53 474.249 149.793 473.806 150.561C473.363 151.328 473.626 152.309 474.393 152.752L497.003 165.805C497.008 165.808 497.012 165.811 497.017 165.813L573.825 210.158C574.26 210.41 574.772 209.981 574.6 209.508L572.633 204.083Z" fill="#E9EBF2"/>
<path fill-rule="evenodd" clip-rule="evenodd" d="M478.732 157.776C481.023 156.796 482.628 154.522 482.628 151.873C482.628 148.33 479.756 145.457 476.212 145.457C472.669 145.457 469.796 148.33 469.796 151.873C469.796 154.522 471.402 156.796 473.693 157.775L460.974 370.018H491.45L478.732 157.776Z" fill="#DCDFE6"/>
<path fill-rule="evenodd" clip-rule="evenodd" d="M477.128 157.776C479.419 156.796 481.024 154.522 481.024 151.873C481.024 148.33 478.152 145.457 474.608 145.457C471.065 145.457 468.192 148.33 468.192 151.873C468.192 154.522 469.798 156.796 472.089 157.775L459.37 370.018H489.846L477.128 157.776Z" fill="#E9EBF2"/>
<path d="M506.778 365.549H490.486C471.609 365.549 479.753 359.94 484.528 358.852C473.854 355.045 481.719 347.872 487.115 350.863C483.744 337.809 495.261 340.529 497.508 347.872C502.003 340.257 509.868 344.064 505.093 352.223C513.239 348.688 513.239 355.759 509.868 357.934C518.015 359.294 513.462 361.844 508.967 361.844C514.305 364.835 510.372 365.549 506.778 365.549Z" fill="#D7D8DE"/>
<path d="M435.286 365.549H418.993C400.116 365.549 408.26 359.94 413.035 358.852C402.361 355.045 410.226 347.872 415.622 350.863C412.251 337.809 423.768 340.529 426.016 347.872C430.51 340.257 438.376 344.064 433.6 352.223C441.747 348.688 441.747 355.759 438.376 357.934C446.522 359.294 441.969 361.844 437.475 361.844C442.812 364.835 438.879 365.549 435.286 365.549Z" fill="#D7D8DE"/>
<path d="M483.888 367.039H451.982C415.014 367.039 430.963 356.521 440.315 354.481C419.411 347.342 434.814 333.894 445.38 339.503C438.779 315.026 461.333 320.126 465.734 333.894C474.536 319.616 489.939 326.755 480.588 342.052C496.541 335.423 496.541 348.682 489.939 352.761C505.893 355.311 496.977 360.091 488.175 360.091C498.627 365.7 490.926 367.039 483.888 367.039Z" fill="#E1E1E6"/>
<path d="M419.642 336.998C419.429 335.512 418.806 334.019 417.54 332.995C420.502 333.087 421.63 333.894 422.856 335.095C425.822 338 424.233 341.549 422.495 340.98C420.756 340.412 419.863 338.538 419.642 336.998Z" fill="#E5E6ED"/>
<path d="M419.41 333.782C422.51 335.299 423.684 339.312 424.103 341.297L423.708 341.397C423.178 337.237 421.086 334.621 419.41 333.782C419.357 333.756 419.302 333.731 419.248 333.706C419.301 333.73 419.356 333.755 419.41 333.782Z" fill="#727785"/>
<path d="M422.23 334.867C422.742 335.506 422.587 336.486 422.475 336.955L422.381 336.936C422.689 335.99 422.505 335.216 422.23 334.867C422.222 334.856 422.212 334.845 422.203 334.834C422.212 334.844 422.221 334.855 422.23 334.867Z" fill="#727785"/>
<path d="M420.734 335.424C420.989 335.795 421.499 335.874 421.747 335.893L421.75 335.84C421.238 335.846 420.874 335.624 420.734 335.424C420.73 335.418 420.726 335.411 420.721 335.405C420.726 335.411 420.73 335.418 420.734 335.424Z" fill="#727785"/>
<path d="M423.45 336.342C423.78 337.092 423.378 337.999 423.149 338.423L423.063 338.38C423.604 337.546 423.625 336.751 423.45 336.342C423.445 336.329 423.439 336.316 423.432 336.304C423.439 336.316 423.445 336.329 423.45 336.342Z" fill="#727785"/>
<path d="M420.889 336.834C421.345 337.514 422.326 337.662 422.806 337.696L422.817 337.6C421.822 337.609 421.14 337.201 420.889 336.834C420.881 336.822 420.873 336.81 420.866 336.798C420.873 336.81 420.881 336.822 420.889 336.834Z" fill="#727785"/>
<path d="M420.87 338.395C421.507 339.384 422.828 339.631 423.473 339.699L423.483 339.562C422.15 339.537 421.221 338.928 420.87 338.395C420.859 338.377 420.849 338.36 420.838 338.343C420.848 338.36 420.859 338.377 420.87 338.395Z" fill="#727785"/>
<path d="M506.933 340.652C507.798 339.425 509.032 338.378 510.625 338.042C507.945 336.777 506.574 336.984 504.935 337.496C500.973 338.736 500.775 342.619 502.582 342.903C504.39 343.186 506.037 341.923 506.933 340.652Z" fill="#E5E6ED"/>
<path d="M508.602 337.893C505.151 337.835 502.281 340.876 501.006 342.454L501.312 342.722C503.675 339.257 506.728 337.879 508.602 337.893C508.661 337.894 508.721 337.896 508.781 337.899C508.722 337.896 508.663 337.894 508.602 337.893Z" fill="#727785"/>
<path d="M505.597 337.577C504.85 337.914 504.543 338.858 504.429 339.326L504.522 339.352C504.678 338.369 505.193 337.764 505.597 337.577C505.61 337.571 505.623 337.566 505.636 337.56C505.623 337.565 505.61 337.571 505.597 337.577Z" fill="#727785"/>
<path d="M506.676 338.754C506.28 338.969 505.79 338.807 505.56 338.711L505.582 338.663C506.036 338.901 506.46 338.868 506.676 338.754C506.683 338.75 506.689 338.746 506.696 338.742C506.69 338.746 506.683 338.75 506.676 338.754Z" fill="#727785"/>
<path d="M503.839 338.337C503.205 338.855 503.151 339.846 503.162 340.327L503.258 340.329C503.156 339.339 503.498 338.621 503.839 338.337C503.85 338.328 503.862 338.319 503.873 338.311C503.862 338.319 503.851 338.328 503.839 338.337Z" fill="#727785"/>
<path d="M505.897 339.939C505.182 340.338 504.241 340.023 503.798 339.836L503.832 339.746C504.714 340.206 505.507 340.152 505.897 339.939C505.91 339.932 505.922 339.925 505.934 339.918C505.922 339.925 505.91 339.932 505.897 339.939Z" fill="#727785"/>
<path d="M505.205 341.338C504.188 341.93 502.899 341.55 502.294 341.317L502.346 341.19C503.545 341.774 504.65 341.654 505.205 341.338C505.222 341.328 505.24 341.317 505.257 341.306C505.24 341.317 505.223 341.327 505.205 341.338Z" fill="#727785"/>
<path d="M472.812 316.284C472.916 314.787 473.429 313.252 474.617 312.139C471.67 312.446 470.604 313.333 469.468 314.62C466.721 317.733 468.563 321.157 470.256 320.463C471.949 319.77 472.703 317.836 472.812 316.284Z" fill="#E5E6ED"/>
<path d="M472.81 313.06C469.828 314.798 468.949 318.886 468.676 320.896L469.077 320.967C469.302 316.779 471.199 314.019 472.81 313.06C472.861 313.03 472.913 313.001 472.966 312.972C472.914 313 472.862 313.029 472.81 313.06Z" fill="#727785"/>
<path d="M470.076 314.347C469.612 315.022 469.838 315.988 469.983 316.447L470.076 316.421C469.7 315.5 469.827 314.715 470.076 314.347C470.084 314.335 470.092 314.323 470.1 314.312C470.092 314.323 470.084 314.335 470.076 314.347Z" fill="#727785"/>
<path d="M471.608 314.794C471.381 315.182 470.878 315.299 470.632 315.335L470.625 315.283C471.137 315.252 471.483 315.004 471.608 314.794C471.612 314.787 471.616 314.78 471.62 314.774C471.616 314.78 471.612 314.787 471.608 314.794Z" fill="#727785"/>
<path d="M468.966 315.907C468.692 316.679 469.159 317.554 469.417 317.96L469.501 317.912C468.9 317.118 468.821 316.327 468.966 315.907C468.971 315.894 468.976 315.88 468.981 315.867C468.976 315.88 468.971 315.893 468.966 315.907Z" fill="#727785"/>
<path d="M471.556 316.211C471.151 316.923 470.183 317.141 469.707 317.211L469.689 317.116C470.682 317.052 471.333 316.596 471.556 316.211C471.563 316.199 471.57 316.187 471.577 316.174C471.57 316.186 471.564 316.199 471.556 316.211Z" fill="#727785"/>
<path d="M471.688 317.766C471.125 318.799 469.826 319.142 469.188 319.257L469.167 319.121C470.495 318.999 471.378 318.324 471.688 317.766C471.698 317.749 471.708 317.731 471.717 317.712C471.708 317.73 471.699 317.748 471.688 317.766Z" fill="#727785"/>
<path d="M440.639 317.483C440.588 316.602 440.298 315.695 439.607 315.031C441.338 315.233 441.959 315.763 442.618 316.529C444.211 318.38 443.102 320.381 442.111 319.961C441.12 319.54 440.691 318.397 440.639 317.483Z" fill="#E5E6ED"/>
<path d="M440.663 315.586C442.405 316.631 442.892 319.042 443.038 320.227L442.802 320.266C442.7 317.8 441.603 316.162 440.663 315.586C440.633 315.568 440.603 315.551 440.572 315.534C440.602 315.55 440.633 315.568 440.663 315.586Z" fill="#727785"/>
<path d="M442.263 316.363C442.53 316.764 442.391 317.331 442.302 317.6L442.247 317.584C442.475 317.045 442.406 316.582 442.263 316.363C442.258 316.356 442.253 316.35 442.248 316.343C442.253 316.349 442.258 316.356 442.263 316.363Z" fill="#727785"/>
<path d="M441.358 316.615C441.488 316.845 441.783 316.918 441.928 316.941L441.932 316.91C441.631 316.888 441.43 316.74 441.358 316.615C441.355 316.611 441.353 316.607 441.351 316.603C441.353 316.607 441.355 316.611 441.358 316.615Z" fill="#727785"/>
<path d="M442.904 317.289C443.059 317.745 442.778 318.257 442.623 318.494L442.575 318.465C442.934 318.003 442.986 317.538 442.904 317.289C442.901 317.282 442.898 317.274 442.895 317.266C442.898 317.273 442.901 317.281 442.904 317.289Z" fill="#727785"/>
<path d="M441.378 317.45C441.611 317.871 442.179 318.007 442.459 318.051L442.47 317.995C441.886 317.951 441.506 317.677 441.378 317.45C441.374 317.442 441.37 317.435 441.366 317.427C441.37 317.435 441.374 317.442 441.378 317.45Z" fill="#727785"/>
<path d="M441.288 318.364C441.612 318.975 442.374 319.187 442.749 319.259L442.762 319.179C441.982 319.098 441.467 318.694 441.288 318.364C441.283 318.353 441.277 318.342 441.272 318.332C441.277 318.342 441.283 318.353 441.288 318.364Z" fill="#727785"/>
<path d="M110.117 367.039H94.3087C75.9927 367.039 83.8949 361.828 88.5284 360.817C78.1711 357.28 85.8028 350.616 91.038 353.396C87.7673 341.269 98.9423 343.795 101.123 350.616C105.484 343.542 113.115 347.079 108.482 354.659C116.386 351.375 116.386 357.943 113.115 359.965C121.02 361.228 116.602 363.596 112.241 363.596C117.42 366.375 113.604 367.039 110.117 367.039Z" fill="#E9EBF2"/>
<path d="M118.885 366.301H110.813C101.46 366.301 105.495 363.522 107.861 362.983C102.572 361.096 106.469 357.542 109.142 359.025C107.472 352.557 113.179 353.904 114.292 357.542C116.519 353.769 120.416 355.656 118.05 359.698C122.086 357.947 122.086 361.45 120.416 362.528C124.452 363.202 122.196 364.465 119.97 364.465C122.614 365.947 120.665 366.301 118.885 366.301Z" fill="#DFE0E6"/>
<path d="M82.7965 348.344C82.3679 347.736 81.7565 347.217 80.9672 347.05C82.2951 346.424 82.9744 346.526 83.7865 346.78C85.7494 347.394 85.8476 349.318 84.9521 349.459C84.0566 349.599 83.2407 348.973 82.7965 348.344Z" fill="#E5E6ED"/>
<path d="M81.9696 346.977C83.6794 346.948 85.1011 348.454 85.7329 349.236L85.5812 349.369C84.4106 347.653 82.898 346.97 81.9696 346.977C81.9401 346.977 81.9105 346.978 81.8809 346.98C81.9098 346.978 81.9394 346.977 81.9696 346.977Z" fill="#727785"/>
<path d="M83.4586 346.82C83.8283 346.987 83.9806 347.455 84.037 347.686L83.9909 347.7C83.9138 347.213 83.6584 346.913 83.4586 346.82C83.4522 346.817 83.4457 346.814 83.4392 346.812C83.4456 346.814 83.452 346.817 83.4586 346.82Z" fill="#727785"/>
<path d="M82.9237 347.403C83.1196 347.51 83.3625 347.43 83.4763 347.382L83.4657 347.358C83.2409 347.476 83.0305 347.46 82.9237 347.403C82.9203 347.401 82.9169 347.399 82.9136 347.397C82.9168 347.399 82.9202 347.401 82.9237 347.403Z" fill="#727785"/>
<path d="M84.329 347.197C84.6433 347.453 84.6701 347.944 84.6648 348.183L84.617 348.183C84.6678 347.693 84.4983 347.338 84.329 347.197C84.3236 347.192 84.3181 347.188 84.3125 347.184C84.318 347.188 84.3235 347.192 84.329 347.197Z" fill="#727785"/>
<path d="M83.3098 347.991C83.6642 348.188 84.1303 348.032 84.3501 347.939L84.3332 347.895C83.8961 348.123 83.5032 348.096 83.3098 347.991C83.3036 347.987 83.2976 347.984 83.2915 347.98C83.2974 347.984 83.3035 347.987 83.3098 347.991Z" fill="#727785"/>
<path d="M83.6527 348.683C84.1565 348.977 84.795 348.788 85.0949 348.673L85.0688 348.61C84.4748 348.9 83.9275 348.84 83.6527 348.683C83.644 348.678 83.6353 348.673 83.6267 348.668C83.6351 348.673 83.6437 348.678 83.6527 348.683Z" fill="#727785"/>
<path d="M119.633 353.509C120.062 352.902 120.673 352.383 121.462 352.216C120.135 351.59 119.455 351.692 118.643 351.946C116.68 352.56 116.582 354.484 117.478 354.624C118.373 354.765 119.189 354.139 119.633 353.509Z" fill="#E5E6ED"/>
<path d="M120.46 352.143C118.75 352.114 117.329 353.62 116.697 354.402L116.849 354.535C118.019 352.818 119.532 352.135 120.46 352.143C120.49 352.143 120.519 352.144 120.549 352.145C120.52 352.144 120.49 352.143 120.46 352.143Z" fill="#727785"/>
<path d="M118.971 351.986C118.601 352.153 118.449 352.62 118.393 352.852L118.439 352.865C118.516 352.378 118.771 352.078 118.971 351.986C118.978 351.983 118.984 351.98 118.99 351.978C118.984 351.98 118.978 351.983 118.971 351.986Z" fill="#727785"/>
<path d="M119.506 352.569C119.31 352.675 119.067 352.595 118.953 352.548L118.964 352.524C119.189 352.642 119.399 352.626 119.506 352.569C119.509 352.567 119.513 352.565 119.516 352.563C119.513 352.565 119.509 352.567 119.506 352.569Z" fill="#727785"/>
<path d="M118.101 352.362C117.786 352.619 117.76 353.11 117.765 353.348L117.813 353.349C117.762 352.859 117.931 352.503 118.101 352.362C118.106 352.358 118.112 352.354 118.117 352.349C118.112 352.353 118.106 352.358 118.101 352.362Z" fill="#727785"/>
<path d="M119.12 353.156C118.765 353.354 118.299 353.198 118.08 353.105L118.096 353.06C118.534 353.288 118.927 353.262 119.12 353.156C119.126 353.153 119.132 353.149 119.138 353.146C119.132 353.149 119.126 353.153 119.12 353.156Z" fill="#727785"/>
<path d="M118.777 353.849C118.273 354.142 117.635 353.954 117.335 353.839L117.361 353.776C117.955 354.065 118.502 354.006 118.777 353.849C118.786 353.844 118.794 353.839 118.803 353.833C118.795 353.839 118.786 353.844 118.777 353.849Z" fill="#727785"/>
<path d="M103.153 344.844C103.205 344.102 103.459 343.341 104.048 342.79C102.588 342.942 102.06 343.381 101.497 344.019C100.136 345.562 101.049 347.258 101.887 346.914C102.726 346.571 103.1 345.613 103.153 344.844Z" fill="#E5E6ED"/>
<path d="M103.152 343.246C101.675 344.107 101.24 346.133 101.104 347.129L101.303 347.164C101.415 345.089 102.355 343.721 103.152 343.246C103.178 343.231 103.204 343.217 103.23 343.203C103.204 343.216 103.178 343.231 103.152 343.246Z" fill="#727785"/>
<path d="M101.798 343.884C101.568 344.218 101.68 344.697 101.752 344.924L101.798 344.912C101.612 344.455 101.675 344.067 101.798 343.884C101.802 343.878 101.806 343.872 101.81 343.867C101.806 343.872 101.802 343.878 101.798 343.884Z" fill="#727785"/>
<path d="M102.557 344.105C102.444 344.298 102.195 344.356 102.073 344.374L102.07 344.348C102.323 344.332 102.495 344.209 102.557 344.105C102.559 344.102 102.561 344.099 102.562 344.095C102.561 344.099 102.559 344.102 102.557 344.105Z" fill="#727785"/>
<path d="M101.248 344.657C101.112 345.039 101.343 345.473 101.471 345.674L101.513 345.65C101.215 345.257 101.176 344.865 101.248 344.657C101.25 344.65 101.253 344.644 101.255 344.637C101.253 344.643 101.25 344.65 101.248 344.657Z" fill="#727785"/>
<path d="M102.531 344.808C102.33 345.16 101.851 345.268 101.615 345.303L101.606 345.256C102.098 345.224 102.42 344.998 102.531 344.808C102.535 344.801 102.538 344.795 102.541 344.789C102.538 344.795 102.535 344.801 102.531 344.808Z" fill="#727785"/>
<path d="M102.597 345.578C102.318 346.09 101.674 346.26 101.358 346.316L101.348 346.249C102.006 346.189 102.443 345.855 102.597 345.578C102.602 345.569 102.606 345.56 102.611 345.551C102.606 345.56 102.602 345.569 102.597 345.578Z" fill="#727785"/>
<path d="M87.5916 344.7C87.5665 344.263 87.4226 343.814 87.0803 343.485C87.9383 343.585 88.2458 343.847 88.5724 344.227C89.3618 345.144 88.8123 346.136 88.3213 345.927C87.8303 345.719 87.6175 345.153 87.5916 344.7Z" fill="#E5E6ED"/>
<path d="M87.6038 343.76C88.4668 344.278 88.7082 345.472 88.7805 346.059L88.6634 346.078C88.6128 344.857 88.0697 344.045 87.6038 343.76C87.5889 343.751 87.5739 343.742 87.5586 343.734C87.5736 343.742 87.5887 343.751 87.6038 343.76Z" fill="#727785"/>
<path d="M88.396 344.145C88.5287 344.343 88.4594 344.624 88.4154 344.758L88.3883 344.75C88.5013 344.483 88.467 344.253 88.396 344.145C88.3937 344.142 88.3913 344.138 88.3889 344.135C88.3913 344.138 88.3937 344.141 88.396 344.145Z" fill="#727785"/>
<path d="M87.9479 344.27C88.0126 344.384 88.1588 344.42 88.2305 344.431L88.2326 344.416C88.0836 344.405 87.9835 344.331 87.9479 344.27C87.9467 344.268 87.9456 344.266 87.9446 344.264C87.9456 344.266 87.9467 344.268 87.9479 344.27Z" fill="#727785"/>
<path d="M88.7137 344.604C88.7908 344.83 88.6515 345.083 88.5747 345.201L88.5505 345.186C88.7285 344.957 88.7544 344.727 88.7137 344.604C88.7123 344.6 88.7109 344.596 88.7095 344.592C88.7109 344.596 88.7123 344.6 88.7137 344.604Z" fill="#727785"/>
<path d="M87.9575 344.683C88.0731 344.892 88.3544 344.959 88.493 344.981L88.4985 344.954C88.2093 344.932 88.0213 344.796 87.9575 344.683C87.9555 344.68 87.9536 344.676 87.9517 344.672C87.9535 344.676 87.9554 344.68 87.9575 344.683Z" fill="#727785"/>
<path d="M87.9136 345.136C88.0741 345.439 88.4515 345.544 88.6372 345.579L88.6437 345.54C88.257 345.5 88.0021 345.3 87.9136 345.136C87.9109 345.131 87.9082 345.125 87.9055 345.12C87.908 345.125 87.9107 345.131 87.9136 345.136Z" fill="#727785"/>
<path d="M114.839 349.866C114.864 349.429 115.008 348.979 115.35 348.651C114.492 348.751 114.184 349.013 113.858 349.393C113.068 350.31 113.618 351.301 114.109 351.093C114.6 350.885 114.813 350.318 114.839 349.866Z" fill="#E5E6ED"/>
<path d="M114.826 348.926C113.963 349.443 113.722 350.638 113.649 351.225L113.767 351.244C113.817 350.023 114.36 349.211 114.826 348.926C114.841 348.917 114.856 348.908 114.871 348.9C114.856 348.908 114.841 348.917 114.826 348.926Z" fill="#727785"/>
<path d="M114.034 349.311C113.902 349.509 113.971 349.79 114.015 349.923L114.042 349.916C113.929 349.648 113.963 349.419 114.034 349.311C114.036 349.307 114.039 349.304 114.041 349.301C114.039 349.304 114.037 349.307 114.034 349.311Z" fill="#727785"/>
<path d="M114.482 349.436C114.418 349.55 114.271 349.585 114.2 349.597L114.198 349.582C114.347 349.571 114.447 349.497 114.482 349.436C114.483 349.434 114.485 349.432 114.486 349.43C114.485 349.432 114.483 349.434 114.482 349.436Z" fill="#727785"/>
<path d="M113.716 349.77C113.639 349.996 113.778 350.249 113.855 350.367L113.879 350.352C113.701 350.123 113.676 349.893 113.716 349.77C113.718 349.766 113.719 349.762 113.72 349.758C113.719 349.762 113.718 349.766 113.716 349.77Z" fill="#727785"/>
<path d="M114.472 349.849C114.357 350.058 114.076 350.125 113.937 350.147L113.931 350.119C114.221 350.097 114.409 349.962 114.472 349.849C114.474 349.845 114.476 349.842 114.478 349.838C114.476 349.842 114.475 349.845 114.472 349.849Z" fill="#727785"/>
<path d="M114.516 350.302C114.356 350.605 113.978 350.709 113.793 350.745L113.786 350.706C114.173 350.665 114.428 350.465 114.516 350.302C114.519 350.296 114.522 350.291 114.524 350.286C114.522 350.291 114.519 350.296 114.516 350.302Z" fill="#727785"/>
<path d="M180.121 367.039H164.312C145.996 367.039 153.898 361.828 158.532 360.817C148.175 357.28 155.806 350.616 161.041 353.396C157.771 341.269 168.946 343.795 171.126 350.616C175.487 343.542 183.119 347.079 178.485 354.659C186.39 351.375 186.39 357.943 183.119 359.965C191.023 361.228 186.606 363.596 182.245 363.596C187.423 366.375 183.607 367.039 180.121 367.039Z" fill="#E9EBF2"/>
<path d="M188.889 366.301H180.816C171.463 366.301 175.498 363.522 177.865 362.983C172.576 361.096 176.473 357.542 179.146 359.025C177.476 352.557 183.182 353.904 184.296 357.542C186.523 353.769 190.42 355.656 188.054 359.698C192.09 357.947 192.09 361.45 190.42 362.528C194.456 363.202 192.2 364.465 189.973 364.465C192.618 365.947 190.669 366.301 188.889 366.301Z" fill="#DFE0E6"/>
<path d="M152.8 348.344C152.371 347.736 151.76 347.217 150.971 347.05C152.299 346.424 152.978 346.526 153.79 346.78C155.753 347.394 155.851 349.318 154.956 349.459C154.06 349.599 153.244 348.973 152.8 348.344Z" fill="#E5E6ED"/>
<path d="M151.973 346.977C153.683 346.948 155.105 348.454 155.737 349.236L155.585 349.369C154.414 347.653 152.902 346.97 151.973 346.977C151.944 346.977 151.914 346.978 151.885 346.98C151.913 346.978 151.943 346.977 151.973 346.977Z" fill="#727785"/>
<path d="M153.462 346.82C153.832 346.987 153.984 347.455 154.04 347.686L153.994 347.7C153.917 347.213 153.662 346.913 153.462 346.82C153.456 346.817 153.449 346.814 153.443 346.812C153.449 346.814 153.455 346.817 153.462 346.82Z" fill="#727785"/>
<path d="M152.927 347.403C153.123 347.51 153.366 347.43 153.48 347.382L153.469 347.358C153.245 347.476 153.034 347.46 152.927 347.403C152.924 347.401 152.921 347.399 152.917 347.397C152.92 347.399 152.924 347.401 152.927 347.403Z" fill="#727785"/>
<path d="M154.333 347.197C154.647 347.453 154.674 347.944 154.669 348.183L154.621 348.183C154.671 347.693 154.502 347.338 154.333 347.197C154.327 347.192 154.322 347.188 154.316 347.184C154.322 347.188 154.327 347.192 154.333 347.197Z" fill="#727785"/>
<path d="M153.313 347.991C153.668 348.188 154.134 348.032 154.354 347.939L154.337 347.895C153.9 348.123 153.507 348.096 153.313 347.991C153.307 347.987 153.301 347.984 153.295 347.98C153.301 347.984 153.307 347.987 153.313 347.991Z" fill="#727785"/>
<path d="M153.656 348.683C154.16 348.977 154.799 348.788 155.099 348.673L155.073 348.61C154.478 348.9 153.931 348.84 153.656 348.683C153.648 348.678 153.639 348.673 153.63 348.668C153.639 348.673 153.647 348.678 153.656 348.683Z" fill="#727785"/>
<path d="M189.637 353.509C190.065 352.902 190.677 352.383 191.466 352.216C190.138 351.59 189.459 351.692 188.647 351.946C186.684 352.56 186.586 354.484 187.481 354.624C188.377 354.765 189.193 354.139 189.637 353.509Z" fill="#E5E6ED"/>
<path d="M190.463 352.143C188.754 352.114 187.332 353.62 186.7 354.402L186.852 354.535C188.022 352.818 189.535 352.135 190.463 352.143C190.493 352.143 190.523 352.144 190.552 352.145C190.523 352.144 190.494 352.143 190.463 352.143Z" fill="#727785"/>
<path d="M188.975 351.986C188.605 352.153 188.453 352.62 188.396 352.852L188.442 352.865C188.52 352.378 188.775 352.078 188.975 351.986C188.981 351.983 188.988 351.98 188.994 351.978C188.988 351.98 188.981 351.983 188.975 351.986Z" fill="#727785"/>
<path d="M189.509 352.569C189.314 352.675 189.071 352.595 188.957 352.548L188.967 352.524C189.192 352.642 189.403 352.626 189.509 352.569C189.513 352.567 189.516 352.565 189.52 352.563C189.516 352.565 189.513 352.567 189.509 352.569Z" fill="#727785"/>
<path d="M188.104 352.362C187.79 352.619 187.763 353.11 187.768 353.348L187.816 353.349C187.765 352.859 187.935 352.503 188.104 352.362C188.109 352.358 188.115 352.354 188.121 352.349C188.115 352.353 188.11 352.358 188.104 352.362Z" fill="#727785"/>
<path d="M189.124 353.156C188.769 353.354 188.303 353.198 188.083 353.105L188.1 353.06C188.537 353.288 188.93 353.262 189.124 353.156C189.13 353.153 189.136 353.149 189.142 353.146C189.136 353.149 189.13 353.153 189.124 353.156Z" fill="#727785"/>
<path d="M188.781 353.849C188.277 354.142 187.638 353.954 187.338 353.839L187.365 353.776C187.959 354.065 188.506 354.006 188.781 353.849C188.789 353.844 188.798 353.839 188.807 353.833C188.798 353.839 188.79 353.844 188.781 353.849Z" fill="#727785"/>
<path d="M173.157 344.844C173.208 344.102 173.463 343.341 174.051 342.79C172.591 342.942 172.063 343.381 171.5 344.019C170.139 345.562 171.052 347.258 171.891 346.914C172.729 346.571 173.103 345.613 173.157 344.844Z" fill="#E5E6ED"/>
<path d="M173.156 343.246C171.679 344.107 171.243 346.133 171.108 347.129L171.306 347.164C171.418 345.089 172.358 343.721 173.156 343.246C173.181 343.231 173.207 343.217 173.233 343.203C173.208 343.216 173.182 343.231 173.156 343.246Z" fill="#727785"/>
<path d="M171.801 343.884C171.571 344.218 171.683 344.697 171.755 344.924L171.801 344.912C171.615 344.455 171.678 344.067 171.801 343.884C171.805 343.878 171.809 343.872 171.813 343.867C171.809 343.872 171.805 343.878 171.801 343.884Z" fill="#727785"/>
<path d="M172.56 344.105C172.448 344.298 172.199 344.356 172.077 344.374L172.073 344.348C172.327 344.332 172.498 344.209 172.56 344.105C172.562 344.102 172.564 344.099 172.566 344.095C172.564 344.099 172.562 344.102 172.56 344.105Z" fill="#727785"/>
<path d="M171.251 344.657C171.116 345.039 171.347 345.473 171.475 345.674L171.516 345.65C171.219 345.257 171.18 344.865 171.251 344.657C171.254 344.65 171.256 344.644 171.259 344.637C171.256 344.643 171.254 344.65 171.251 344.657Z" fill="#727785"/>
<path d="M172.535 344.808C172.334 345.16 171.854 345.268 171.618 345.303L171.61 345.256C172.102 345.224 172.424 344.998 172.535 344.808C172.538 344.801 172.542 344.795 172.545 344.789C172.542 344.795 172.538 344.801 172.535 344.808Z" fill="#727785"/>
<path d="M172.6 345.578C172.321 346.09 171.678 346.26 171.361 346.316L171.351 346.249C172.009 346.189 172.447 345.855 172.6 345.578C172.605 345.569 172.61 345.56 172.615 345.551C172.61 345.56 172.605 345.569 172.6 345.578Z" fill="#727785"/>
<path d="M157.595 344.7C157.57 344.263 157.426 343.814 157.084 343.485C157.942 343.585 158.249 343.847 158.576 344.227C159.365 345.144 158.816 346.136 158.325 345.927C157.834 345.719 157.621 345.153 157.595 344.7Z" fill="#E5E6ED"/>
<path d="M157.607 343.76C158.47 344.278 158.712 345.472 158.784 346.059L158.667 346.078C158.616 344.857 158.073 344.045 157.607 343.76C157.593 343.751 157.578 343.742 157.562 343.734C157.577 343.742 157.592 343.751 157.607 343.76Z" fill="#727785"/>
<path d="M158.399 344.145C158.532 344.343 158.463 344.624 158.419 344.758L158.392 344.75C158.505 344.483 158.47 344.253 158.399 344.145C158.397 344.142 158.395 344.138 158.392 344.135C158.395 344.138 158.397 344.141 158.399 344.145Z" fill="#727785"/>
<path d="M157.951 344.27C158.016 344.384 158.162 344.42 158.234 344.431L158.236 344.416C158.087 344.405 157.987 344.331 157.951 344.27C157.95 344.268 157.949 344.266 157.948 344.264C157.949 344.266 157.95 344.268 157.951 344.27Z" fill="#727785"/>
<path d="M158.717 344.604C158.794 344.83 158.655 345.083 158.578 345.201L158.554 345.186C158.732 344.957 158.758 344.727 158.717 344.604C158.716 344.6 158.715 344.596 158.713 344.592C158.715 344.596 158.716 344.6 158.717 344.604Z" fill="#727785"/>
<path d="M157.961 344.683C158.077 344.892 158.358 344.959 158.497 344.981L158.502 344.954C158.213 344.932 158.025 344.796 157.961 344.683C157.959 344.68 157.957 344.676 157.955 344.672C157.957 344.676 157.959 344.68 157.961 344.683Z" fill="#727785"/>
<path d="M157.917 345.136C158.078 345.439 158.455 345.544 158.641 345.579L158.647 345.54C158.261 345.5 158.006 345.3 157.917 345.136C157.915 345.131 157.912 345.125 157.909 345.12C157.912 345.125 157.914 345.131 157.917 345.136Z" fill="#727785"/>
<path d="M184.842 349.866C184.867 349.429 185.011 348.979 185.353 348.651C184.495 348.751 184.188 349.013 183.861 349.393C183.072 350.31 183.621 351.301 184.112 351.093C184.603 350.885 184.816 350.318 184.842 349.866Z" fill="#E5E6ED"/>
<path d="M184.83 348.926C183.967 349.443 183.725 350.638 183.653 351.225L183.77 351.244C183.821 350.023 184.364 349.211 184.83 348.926C184.845 348.917 184.86 348.908 184.875 348.9C184.86 348.908 184.845 348.917 184.83 348.926Z" fill="#727785"/>
<path d="M184.038 349.311C183.905 349.509 183.974 349.79 184.018 349.923L184.045 349.916C183.932 349.648 183.967 349.419 184.038 349.311C184.04 349.307 184.042 349.304 184.045 349.301C184.042 349.304 184.04 349.307 184.038 349.311Z" fill="#727785"/>
<path d="M184.486 349.436C184.421 349.55 184.275 349.585 184.203 349.597L184.201 349.582C184.35 349.571 184.45 349.497 184.486 349.436C184.487 349.434 184.488 349.432 184.489 349.43C184.488 349.432 184.487 349.434 184.486 349.436Z" fill="#727785"/>
<path d="M183.72 349.77C183.643 349.996 183.782 350.249 183.859 350.367L183.883 350.352C183.705 350.123 183.679 349.893 183.72 349.77C183.721 349.766 183.723 349.762 183.724 349.758C183.723 349.762 183.721 349.766 183.72 349.77Z" fill="#727785"/>
<path d="M184.476 349.849C184.361 350.058 184.079 350.125 183.941 350.147L183.935 350.119C184.224 350.097 184.412 349.962 184.476 349.849C184.478 349.845 184.48 349.842 184.482 349.838C184.48 349.842 184.478 349.845 184.476 349.849Z" fill="#727785"/>
<path d="M184.52 350.302C184.36 350.605 183.982 350.709 183.796 350.745L183.79 350.706C184.177 350.665 184.431 350.465 184.52 350.302C184.523 350.296 184.525 350.291 184.528 350.286C184.526 350.291 184.523 350.296 184.52 350.302Z" fill="#727785"/>
<path d="M2 366.039H597.773" stroke="#20242E" stroke-width="4" stroke-linecap="round" stroke-linejoin="round"/>
<rect x="219.776" y="164.476" width="8.40466" height="199.584" fill="#20242E"/>
<rect x="212.01" y="164.476" width="11.9155" height="199.584" fill="#334680"/>
<rect x="380.529" y="164.476" width="8.40466" height="199.584" fill="#20242E"/>
<rect x="372.869" y="164.476" width="11.9155" height="199.584" fill="#334680"/>
<rect x="182.221" y="180.86" width="235.33" height="33.6186" fill="#2F63FF"/>
<path fill-rule="evenodd" clip-rule="evenodd" d="M417.552 187.024V180.86H394.771L381.5 214.478H406.714L417.552 187.024ZM350.226 180.86H375.44L362.17 214.478H336.956L350.226 180.86ZM330.896 180.86H305.681L292.411 214.478H317.625L330.896 180.86ZM261.137 180.86H286.351L273.08 214.478H247.866L261.137 180.86ZM241.806 180.86H216.592L203.322 214.478H228.536L241.806 180.86ZM182.221 180.86H197.261L183.991 214.478H182.221V180.86Z" fill="white"/>
<path opacity="0.2" fill-rule="evenodd" clip-rule="evenodd" d="M274.894 214.478L294.304 180.86H326.981L346.391 214.478H274.894Z" fill="#20242E"/>
<rect opacity="0.2" x="182.221" y="180.86" width="235.33" height="3.55974" fill="#20242E"/>
<rect x="182.221" y="241.927" width="235.33" height="33.6186" fill="#2F63FF"/>
<path d="M182.221 241.927H417.552V275.545H182.221V241.927Z" fill="white"/>
<path opacity="0.2" d="M302.038 159.323C305.2 153.846 313.105 153.846 316.267 159.323L371.977 255.815C375.139 261.292 371.187 268.138 364.863 268.138H253.443C247.119 268.138 243.166 261.292 246.328 255.815L302.038 159.323Z" fill="#20242E"/>
<path d="M417.5 275.5V248L406.5 275.5H417.5Z" fill="#A855F7"/>
<path d="M417.5 214.5V187L406.5 214.5H417.5Z" fill="#A855F7"/>
<path d="M393.5 245.5H374L362 275.5H381.5L393.5 245.5Z" fill="#A855F7"/>
<path d="M304.5 245.5H285L273 275.5H292.5L304.5 245.5Z" fill="#A855F7"/>
<path d="M348.5 245.5H329L317 275.5H336.5L348.5 245.5Z" fill="#A855F7"/>
<path d="M215.5 245.5H196L184 275.5H203.5L215.5 245.5Z" fill="#A855F7"/>
<path d="M215.5 184.5H196L184 214.5H203.5L215.5 184.5Z" fill="#A855F7"/>
<path d="M259.5 184.5H240L228 214.5H247.5L259.5 184.5Z" fill="#A855F7"/>
<path d="M348.5 184.5H329L317 214.5H336.5L348.5 184.5Z" fill="#A855F7"/>
<path d="M393.5 184.5H374L362 214.5H381.5L393.5 184.5Z" fill="#A855F7"/>
<path d="M319.5 270.5H339L337 275.5H317.5L319.5 270.5Z" fill="#A855F7"/>
<path d="M275 270.5H294.5L292.5 275.5H273L275 270.5Z" fill="#A855F7"/>
<path d="M248 275.5H228.5L236.5 255H256L248 275.5Z" fill="#A855F7"/>
<path d="M293.92 156.765C297.082 151.288 304.987 151.288 308.149 156.765L363.859 253.257C367.021 258.734 363.068 265.58 356.744 265.58H245.324C239 265.58 235.048 258.734 238.21 253.257L293.92 156.765Z" fill="#A855F7"/>
<path d="M303.677 155.708L359.386 252.2C361.586 256.01 358.836 260.773 354.437 260.773H243.017C238.617 260.773 235.868 256.01 238.067 252.2L293.777 155.708C295.977 151.897 301.477 151.897 303.677 155.708Z" fill="white" stroke="#7F27D2" stroke-width="5"/>
<path d="M286.729 231.37V227.92H285.049V223.06H281.119V227.92H277.129L283.039 213.97H279.109L273.199 227.92V231.37H281.119V234.67H285.049V231.37H286.729ZM290.794 233.23C291.814 234.43 293.374 235 295.474 235C297.574 235 299.104 234.4 300.124 233.2C301.144 232 301.654 230.23 301.654 227.86V220.54C301.654 218.26 301.144 216.55 300.124 215.38C299.104 214.24 297.574 213.64 295.474 213.64C293.434 213.64 291.904 214.24 290.854 215.41C289.804 216.58 289.294 218.29 289.294 220.54V227.86C289.294 230.26 289.774 232.03 290.794 233.23ZM297.244 230.68C296.944 231.28 296.344 231.58 295.474 231.58C294.604 231.58 294.004 231.28 293.704 230.68C293.404 230.08 293.254 229.03 293.254 227.53V221.11C293.254 219.64 293.404 218.59 293.704 217.99C294.004 217.39 294.574 217.09 295.474 217.09C296.344 217.09 296.944 217.39 297.244 217.99C297.544 218.59 297.724 219.64 297.724 221.11V227.53C297.724 229.03 297.544 230.08 297.244 230.68ZM306.085 233.62C307.165 234.55 308.665 235 310.615 235C311.785 235 312.835 234.76 313.795 234.28C314.725 233.8 315.445 233.08 315.985 232.18C316.495 231.28 316.765 230.23 316.765 229V228.43C316.765 227.29 316.525 226.3 316.045 225.46C315.565 224.65 314.905 224.05 314.005 223.66C314.785 223.24 315.385 222.7 315.805 221.98C316.225 221.26 316.435 220.45 316.435 219.55V219.1C316.435 217.45 315.895 216.13 314.875 215.14C313.825 214.15 312.385 213.64 310.585 213.64C308.725 213.64 307.255 214.15 306.205 215.11C305.155 216.07 304.645 217.42 304.645 219.16V219.67H308.245V219.16C308.245 218.5 308.425 217.96 308.815 217.57C309.175 217.18 309.715 216.97 310.435 216.97C311.095 216.97 311.635 217.21 312.025 217.63C312.415 218.05 312.625 218.65 312.625 219.4V219.85C312.625 220.63 312.415 221.26 311.995 221.68C311.575 222.13 310.975 222.34 310.225 222.34H309.205V225.67H310.255C311.125 225.67 311.785 225.91 312.265 226.39C312.715 226.87 312.955 227.56 312.955 228.46V229C312.955 229.84 312.715 230.47 312.295 230.95C311.875 231.43 311.275 231.67 310.555 231.67C309.775 231.67 309.175 231.49 308.755 231.13C308.335 230.77 308.155 230.2 308.155 229.48V229.03H304.495V229.66C304.495 231.37 305.005 232.69 306.085 233.62Z" fill="#A855F7"/>
<path d="M297.465 187.719H300.206L300.898 178.618L301.031 174.653H296.64L296.773 178.618L297.465 187.719ZM298.849 194.824C300.18 194.824 301.191 193.839 301.191 192.456C301.191 191.072 300.18 190.114 298.849 190.114C297.492 190.114 296.481 191.072 296.481 192.456C296.481 193.839 297.465 194.824 298.849 194.824Z" fill="#A855F7"/>
<path d="M152.499 302H160.511L178.72 358.812H134.29L152.499 302Z" fill="white"/>
<path fill-rule="evenodd" clip-rule="evenodd" d="M152.499 302H160.511L167.865 324.943H145.145L152.499 302ZM143.044 331.499L140.36 339.875H172.65L169.966 331.499H143.044ZM138.258 346.43H174.751L178.72 358.812H134.29L138.258 346.43Z" fill="#2F63FF"/>
<path d="M152.499 302H160.511L178.72 358.812H134.29L152.499 302Z" fill="#A855F7"/>
<rect x="123" y="358.812" width="67.0096" height="5.09856" fill="#A855F7"/>
<path fill-rule="evenodd" clip-rule="evenodd" d="M176.969 353.35L178.72 358.813H134.29L136.041 353.35H176.969Z" fill="black" fill-opacity="0.2"/>
<mask id="mask0_82_1357" style="mask-type:alpha" maskUnits="userSpaceOnUse" x="134" y="302" width="45" height="57">
<path fill-rule="evenodd" clip-rule="evenodd" d="M152.324 302H160.336L167.69 324.943H144.971L152.324 302ZM142.87 331.499L140.185 339.875H172.476L169.791 331.499H142.87ZM138.084 346.43H174.577L178.546 358.812H134.115L138.084 346.43Z" fill="#2F63FF"/>
<path fill-rule="evenodd" clip-rule="evenodd" d="M176.969 353.35L178.72 358.813H134.29L136.041 353.35H176.969Z" fill="black" fill-opacity="0.2"/>
</mask>
<g mask="url(#mask0_82_1357)">
<circle cx="114.26" cy="288.161" r="68.1022" fill="white" fill-opacity="0.2"/>
</g>
<path d="M137.928 346.798L140.14 340.261H172.76L174.971 346.798H137.928Z" fill="white"/>
<path d="M143.023 331.545L145.121 325.008H167.89L169.973 331.545H143.023Z" fill="white"/>
</svg>
