<svg width="600" height="371" viewBox="0 0 600 371" fill="none" xmlns="http://www.w3.org/2000/svg">
<path fill-rule="evenodd" clip-rule="evenodd" d="M471.026 367.039C503.651 328.204 523.301 278.104 523.301 223.415C523.301 100.026 423.275 0 299.887 0C176.498 0 76.4716 100.026 76.4716 223.415C76.4716 278.104 96.1219 328.204 128.747 367.039H471.026Z" fill="#F0F3FD"/>
<g opacity="0.15">
<path fill-rule="evenodd" clip-rule="evenodd" d="M388.503 161.507C388.339 161.702 388.233 161.938 388.196 162.19L380.912 211.765C380.822 212.379 381.157 212.978 381.728 213.223L389.222 216.434C389.348 216.488 389.429 216.612 389.429 216.749V231.933C389.429 232.497 389.886 232.953 390.449 232.953C391.013 232.953 391.469 232.497 391.469 231.933V215.345C391.47 215.337 391.47 215.329 391.47 215.32L391.47 158.919C391.47 158.6 391.071 158.454 390.865 158.699L388.503 161.507Z" fill="#A4A4A4"/>
<path fill-rule="evenodd" clip-rule="evenodd" d="M388.503 160.487C388.339 160.682 388.233 160.918 388.196 161.17L380.912 210.745C380.822 211.359 381.157 211.958 381.728 212.203L389.222 215.414C389.348 215.468 389.429 215.592 389.429 215.729V230.913C389.429 231.477 389.886 231.933 390.449 231.933C391.013 231.933 391.469 231.477 391.469 230.913V214.325C391.47 214.317 391.47 214.309 391.47 214.3L391.47 157.899C391.47 157.58 391.071 157.434 390.865 157.679L388.503 160.487Z" fill="#C4C4C4"/>
<path fill-rule="evenodd" clip-rule="evenodd" d="M330.976 268.186C331.226 268.23 331.484 268.204 331.72 268.11L378.295 249.631C378.873 249.402 379.224 248.812 379.15 248.195L378.185 240.099C378.168 239.963 378.235 239.831 378.353 239.762L391.503 232.17C391.991 231.889 392.158 231.265 391.877 230.777C391.595 230.289 390.971 230.122 390.483 230.404L365.748 244.684C365.746 244.686 365.744 244.687 365.741 244.688L327.251 266.911C326.974 267.07 327.048 267.489 327.362 267.544L330.976 268.186Z" fill="#A4A4A4"/>
<path fill-rule="evenodd" clip-rule="evenodd" d="M330.466 267.676C330.716 267.72 330.974 267.694 331.21 267.6L377.785 249.121C378.363 248.892 378.714 248.302 378.64 247.685L377.675 239.59C377.658 239.454 377.725 239.321 377.843 239.252L390.993 231.66C391.481 231.379 391.648 230.755 391.367 230.267C391.085 229.779 390.461 229.612 389.973 229.894L375.598 238.193C375.594 238.195 375.59 238.198 375.586 238.2L326.741 266.401C326.464 266.56 326.538 266.979 326.852 267.034L330.466 267.676Z" fill="#C4C4C4"/>
<path fill-rule="evenodd" clip-rule="evenodd" d="M452.787 265.514C452.7 265.275 452.549 265.064 452.349 264.907L413.058 233.811C412.571 233.426 411.885 233.416 411.387 233.789L404.859 238.673C404.749 238.755 404.601 238.764 404.483 238.695L391.333 231.103C390.845 230.821 390.221 230.989 389.939 231.476C389.658 231.964 389.825 232.588 390.313 232.87L404.688 241.169C404.692 241.172 404.696 241.174 404.7 241.176L453.545 269.377C453.822 269.537 454.147 269.264 454.038 268.964L452.787 265.514Z" fill="#A4A4A4"/>
<path fill-rule="evenodd" clip-rule="evenodd" d="M452.787 264.493C452.7 264.254 452.549 264.044 452.349 263.886L413.058 232.791C412.571 232.406 411.885 232.396 411.387 232.769L404.859 237.653C404.749 237.735 404.601 237.744 404.483 237.675L391.333 230.083C390.845 229.801 390.221 229.968 389.939 230.456C389.658 230.944 389.825 231.568 390.313 231.85L404.688 240.149C404.692 240.152 404.696 240.154 404.7 240.156L453.545 268.357C453.822 268.517 454.147 268.244 454.038 267.944L452.787 264.493Z" fill="#C4C4C4"/>
<path fill-rule="evenodd" clip-rule="evenodd" d="M393.072 235.045C394.529 234.422 395.55 232.976 395.55 231.291C395.55 229.038 393.723 227.211 391.469 227.211C389.216 227.211 387.389 229.038 387.389 231.291C387.389 232.976 388.41 234.422 389.867 235.045L381.779 370.018H401.16L393.072 235.045Z" fill="#A4A4A4"/>
<path fill-rule="evenodd" clip-rule="evenodd" d="M392.052 235.045C393.508 234.422 394.53 232.976 394.53 231.291C394.53 229.038 392.703 227.211 390.449 227.211C388.196 227.211 386.369 229.038 386.369 231.291C386.369 232.976 387.39 234.422 388.847 235.045L380.759 370.018H400.14L392.052 235.045Z" fill="#C4C4C4"/>
</g>
<g opacity="0.6">
<rect x="82.4294" y="182.349" width="39.7884" height="93.8295" rx="19.8942" fill="#E9EBF2"/>
<rect x="101.433" y="220.356" width="2.37543" height="146.683" rx="1.18771" fill="#E1E2E5"/>
<rect x="111.233" y="225.572" width="2.37543" height="20.0225" rx="1.18771" transform="rotate(30 111.233 225.572)" fill="#E1E2E5"/>
<rect width="2.37543" height="28.1694" rx="1.18771" transform="matrix(0.866025 -0.5 -0.5 -0.866025 102.091 257.551)" fill="#E1E2E5"/>
</g>
<rect x="134.56" y="104.899" width="56.8954" height="134.171" rx="28.4477" fill="#E9EBF2"/>
<rect x="161.734" y="159.246" width="3.39674" height="209.749" rx="1.69837" fill="#E1E2E5"/>
<rect x="175.747" y="166.704" width="3.39674" height="28.6311" rx="1.69837" transform="rotate(30 175.747 166.704)" fill="#E1E2E5"/>
<rect width="3.39674" height="40.2808" rx="1.69837" transform="matrix(0.866025 -0.5 -0.5 -0.866025 162.675 212.433)" fill="#E1E2E5"/>
<path opacity="0.8" fill-rule="evenodd" clip-rule="evenodd" d="M210.521 73.5196C210.521 73.6221 210.519 73.7243 210.517 73.8263C216.903 73.985 222.032 79.2121 222.032 85.637C222.032 92.0607 216.906 97.287 210.521 97.4477V97.4514H210.274C210.255 97.4515 210.236 97.4515 210.218 97.4515C210.199 97.4515 210.18 97.4515 210.162 97.4514H186.892V97.4477C186.791 97.4502 186.69 97.4515 186.589 97.4515C180.064 97.4515 174.774 92.162 174.774 85.637C174.774 79.1121 180.064 73.8225 186.589 73.8225C186.691 73.8225 186.794 73.8238 186.896 73.8264C186.893 73.7245 186.892 73.6222 186.892 73.5196C186.892 66.9946 192.181 61.7051 198.706 61.7051C205.231 61.7051 210.521 66.9946 210.521 73.5196Z" fill="white"/>
<path opacity="0.6" fill-rule="evenodd" clip-rule="evenodd" d="M428.131 109.214C428.131 109.266 428.13 109.317 428.129 109.369C431.349 109.449 433.935 112.085 433.935 115.325C433.935 118.564 431.35 121.199 428.131 121.28V121.282H428.011C428 121.282 427.989 121.282 427.978 121.282C427.966 121.282 427.955 121.282 427.944 121.282H416.215V121.28C416.164 121.282 416.113 121.282 416.062 121.282C412.772 121.282 410.105 118.615 410.105 115.325C410.105 112.034 412.772 109.367 416.062 109.367C416.114 109.367 416.166 109.368 416.217 109.369C416.216 109.317 416.215 109.266 416.215 109.214C416.215 105.924 418.883 103.256 422.173 103.256C425.463 103.256 428.131 105.924 428.131 109.214Z" fill="white"/>
<path fill-rule="evenodd" clip-rule="evenodd" d="M328.484 40.5971C328.484 30.0448 337.038 21.4904 347.59 21.4904C355.421 21.4904 362.151 26.2012 365.102 32.9435C367.001 31.6001 369.32 30.8106 371.823 30.8106C377.712 30.8106 382.58 35.1797 383.363 40.853H387.733C393.08 40.853 397.415 45.1875 397.415 50.5344C397.415 55.8812 393.08 60.2157 387.733 60.2157H330.42C325.073 60.2157 320.739 55.8812 320.739 50.5344C320.739 45.8488 324.067 41.9407 328.489 41.0457C328.485 40.8966 328.484 40.747 328.484 40.5971Z" fill="white"/>
<path opacity="0.6" fill-rule="evenodd" clip-rule="evenodd" d="M197.296 167.802C197.296 163.497 200.786 160.008 205.09 160.008C208.285 160.008 211.03 161.929 212.234 164.68C213.009 164.132 213.954 163.81 214.975 163.81C217.378 163.81 219.364 165.592 219.683 167.906H221.466C223.647 167.906 225.415 169.674 225.415 171.855C225.415 174.036 223.647 175.805 221.466 175.805H198.086C195.905 175.805 194.137 174.036 194.137 171.855C194.137 169.944 195.495 168.35 197.298 167.985C197.297 167.924 197.296 167.863 197.296 167.802Z" fill="white"/>
<path fill-rule="evenodd" clip-rule="evenodd" d="M471.547 42.1396C471.29 42.4456 471.123 42.8172 471.065 43.2128L459.611 121.168C459.469 122.135 459.996 123.076 460.894 123.461L472.678 128.511C472.876 128.596 473.004 128.791 473.004 129.006V152.883C473.004 153.769 473.722 154.487 474.608 154.487C475.494 154.487 476.212 153.769 476.212 152.883V126.781C476.212 126.774 476.212 126.767 476.212 126.76L476.212 38.0695C476.212 37.5671 475.585 37.3384 475.262 37.7229L471.547 42.1396Z" fill="#DCDFE6"/>
<path fill-rule="evenodd" clip-rule="evenodd" d="M471.547 40.5357C471.29 40.8417 471.123 41.2133 471.065 41.6089L459.611 119.564C459.469 120.531 459.996 121.472 460.894 121.857L472.678 126.907C472.876 126.992 473.004 127.187 473.004 127.402V151.279C473.004 152.165 473.722 152.883 474.608 152.883C475.494 152.883 476.212 152.165 476.212 151.279V125.177C476.212 125.17 476.212 125.163 476.212 125.156L476.212 36.4656C476.212 35.9632 475.585 35.7345 475.262 36.119L471.547 40.5357Z" fill="#E9EBF2"/>
<path fill-rule="evenodd" clip-rule="evenodd" d="M381.088 209.889C381.481 209.959 381.887 209.918 382.258 209.77L455.496 180.711C456.404 180.351 456.956 179.425 456.84 178.454L455.322 165.724C455.297 165.51 455.401 165.301 455.588 165.194L476.266 153.255C477.033 152.812 477.296 151.831 476.853 151.064C476.41 150.297 475.429 150.034 474.662 150.477L452.06 163.526C452.053 163.53 452.045 163.534 452.038 163.539L375.23 207.884C374.795 208.135 374.911 208.792 375.405 208.88L381.088 209.889Z" fill="#DCDFE6"/>
<path fill-rule="evenodd" clip-rule="evenodd" d="M380.286 209.087C380.679 209.157 381.085 209.116 381.456 208.968L454.694 179.909C455.602 179.549 456.154 178.623 456.039 177.652L454.52 164.922C454.495 164.708 454.599 164.499 454.786 164.392L475.464 152.453C476.231 152.01 476.494 151.029 476.051 150.262C475.608 149.495 474.627 149.232 473.86 149.675L451.258 162.724C451.251 162.728 451.243 162.732 451.236 162.737L374.428 207.082C373.993 207.333 374.109 207.99 374.603 208.078L380.286 209.087Z" fill="#E9EBF2"/>
<path fill-rule="evenodd" clip-rule="evenodd" d="M572.633 205.687C572.496 205.311 572.258 204.981 571.944 204.733L510.16 155.836C509.394 155.23 508.316 155.215 507.533 155.8L497.267 163.481C497.095 163.61 496.862 163.623 496.676 163.516L475.998 151.577C475.23 151.134 474.249 151.397 473.806 152.164C473.364 152.932 473.626 153.913 474.394 154.356L497.003 167.409C497.008 167.412 497.012 167.415 497.017 167.417L573.825 211.762C574.26 212.013 574.772 211.585 574.6 211.112L572.633 205.687Z" fill="#DCDFE6"/>
<path fill-rule="evenodd" clip-rule="evenodd" d="M572.633 204.083C572.496 203.707 572.258 203.377 571.944 203.129L510.16 154.232C509.394 153.626 508.316 153.611 507.533 154.196L497.267 161.877C497.095 162.006 496.862 162.019 496.675 161.912L475.998 149.973C475.23 149.53 474.249 149.793 473.806 150.56C473.364 151.328 473.626 152.309 474.394 152.752L497.003 165.805C497.008 165.808 497.012 165.811 497.017 165.813L573.825 210.158C574.26 210.409 574.772 209.981 574.6 209.508L572.633 204.083Z" fill="#E9EBF2"/>
<path fill-rule="evenodd" clip-rule="evenodd" d="M478.732 157.775C481.023 156.796 482.628 154.522 482.628 151.873C482.628 148.329 479.756 145.457 476.212 145.457C472.669 145.457 469.796 148.329 469.796 151.873C469.796 154.522 471.402 156.796 473.693 157.775L460.974 370.018H491.45L478.732 157.775Z" fill="#DCDFE6"/>
<path fill-rule="evenodd" clip-rule="evenodd" d="M477.128 157.775C479.419 156.796 481.024 154.522 481.024 151.873C481.024 148.329 478.152 145.457 474.608 145.457C471.065 145.457 468.192 148.329 468.192 151.873C468.192 154.522 469.798 156.796 472.089 157.775L459.37 370.018H489.846L477.128 157.775Z" fill="#E9EBF2"/>
<path d="M493.373 365.549H477.081C458.203 365.549 466.348 359.94 471.123 358.852C460.449 355.045 468.314 347.872 473.71 350.864C470.339 337.809 481.856 340.529 484.103 347.872C488.598 340.257 496.463 344.065 491.688 352.223C499.834 348.688 499.834 355.759 496.463 357.935C504.61 359.294 500.057 361.844 495.562 361.844C500.9 364.835 496.967 365.549 493.373 365.549Z" fill="#D7D8DE"/>
<path d="M421.881 365.549H405.588C386.711 365.549 394.855 359.94 399.63 358.852C388.956 355.045 396.821 347.872 402.217 350.864C398.846 337.809 410.363 340.529 412.611 347.872C417.105 340.257 424.971 344.065 420.195 352.223C428.341 348.688 428.341 355.759 424.971 357.935C433.117 359.294 428.564 361.844 424.07 361.844C429.407 364.835 425.474 365.549 421.881 365.549Z" fill="#D7D8DE"/>
<path d="M470.483 367.039H438.576C401.609 367.039 417.558 356.521 426.91 354.481C406.005 347.342 421.409 333.894 431.975 339.503C425.374 315.026 447.928 320.126 452.329 333.894C461.131 319.616 476.534 326.755 467.182 342.052C483.136 335.423 483.136 348.682 476.534 352.761C492.488 355.311 483.572 360.091 474.77 360.091C485.222 365.7 477.52 367.039 470.483 367.039Z" fill="#E1E1E6"/>
<path d="M406.237 336.998C406.024 335.512 405.401 334.019 404.135 332.995C407.097 333.087 408.224 333.894 409.451 335.095C412.417 338 410.828 341.549 409.089 340.98C407.351 340.412 406.458 338.538 406.237 336.998Z" fill="#E5E6ED"/>
<path d="M406.005 333.782C409.105 335.299 410.279 339.312 410.697 341.297L410.303 341.397C409.773 337.237 407.68 334.621 406.005 333.782C405.951 333.756 405.897 333.731 405.843 333.706C405.896 333.73 405.95 333.755 406.005 333.782Z" fill="#727785"/>
<path d="M408.825 334.867C409.337 335.506 409.182 336.486 409.07 336.955L408.975 336.936C409.283 335.99 409.1 335.216 408.825 334.867C408.816 334.856 408.807 334.845 408.798 334.834C408.807 334.844 408.816 334.855 408.825 334.867Z" fill="#727785"/>
<path d="M407.329 335.424C407.584 335.795 408.094 335.875 408.342 335.893L408.345 335.841C407.832 335.847 407.469 335.624 407.329 335.424C407.325 335.418 407.32 335.411 407.316 335.405C407.32 335.411 407.325 335.418 407.329 335.424Z" fill="#727785"/>
<path d="M410.045 336.342C410.374 337.092 409.972 337.999 409.744 338.423L409.657 338.38C410.199 337.546 410.22 336.751 410.045 336.342C410.039 336.329 410.033 336.316 410.027 336.304C410.033 336.316 410.039 336.329 410.045 336.342Z" fill="#727785"/>
<path d="M407.484 336.834C407.94 337.514 408.921 337.662 409.401 337.696L409.412 337.6C408.417 337.609 407.735 337.201 407.484 336.834C407.476 336.822 407.468 336.81 407.461 336.798C407.468 336.81 407.476 336.822 407.484 336.834Z" fill="#727785"/>
<path d="M407.465 338.395C408.102 339.384 409.422 339.631 410.067 339.699L410.078 339.562C408.745 339.537 407.815 338.928 407.465 338.395C407.454 338.377 407.443 338.36 407.433 338.343C407.443 338.36 407.454 338.377 407.465 338.395Z" fill="#727785"/>
<path d="M493.528 340.652C494.393 339.425 495.627 338.378 497.22 338.042C494.54 336.777 493.169 336.984 491.53 337.496C487.568 338.736 487.37 342.619 489.177 342.903C490.985 343.186 492.631 341.923 493.528 340.652Z" fill="#E5E6ED"/>
<path d="M495.196 337.893C491.746 337.835 488.876 340.876 487.601 342.454L487.907 342.722C490.27 339.257 493.323 337.879 495.196 337.893C495.256 337.894 495.316 337.896 495.376 337.899C495.317 337.896 495.257 337.894 495.196 337.893Z" fill="#727785"/>
<path d="M492.191 337.577C491.445 337.914 491.138 338.858 491.024 339.326L491.117 339.352C491.273 338.369 491.788 337.764 492.191 337.577C492.204 337.571 492.217 337.566 492.231 337.56C492.218 337.565 492.205 337.571 492.191 337.577Z" fill="#727785"/>
<path d="M493.271 338.754C492.875 338.969 492.385 338.807 492.155 338.711L492.177 338.663C492.63 338.901 493.055 338.868 493.271 338.754C493.277 338.75 493.284 338.746 493.291 338.742C493.284 338.746 493.278 338.75 493.271 338.754Z" fill="#727785"/>
<path d="M490.434 338.337C489.8 338.855 489.746 339.846 489.757 340.327L489.853 340.329C489.75 339.339 490.093 338.621 490.434 338.337C490.445 338.328 490.456 338.319 490.468 338.311C490.457 338.319 490.445 338.328 490.434 338.337Z" fill="#727785"/>
<path d="M492.492 339.939C491.777 340.338 490.836 340.023 490.392 339.836L490.426 339.746C491.309 340.206 492.102 340.152 492.492 339.939C492.504 339.932 492.517 339.925 492.529 339.918C492.517 339.925 492.505 339.932 492.492 339.939Z" fill="#727785"/>
<path d="M491.799 341.338C490.783 341.93 489.494 341.55 488.889 341.317L488.941 341.19C490.14 341.774 491.245 341.654 491.799 341.338C491.817 341.328 491.834 341.317 491.852 341.306C491.835 341.317 491.817 341.327 491.799 341.338Z" fill="#727785"/>
<path d="M459.406 316.284C459.511 314.787 460.024 313.252 461.212 312.139C458.264 312.446 457.199 313.333 456.062 314.62C453.316 317.733 455.158 321.157 456.851 320.463C458.544 319.77 459.298 317.836 459.406 316.284Z" fill="#E5E6ED"/>
<path d="M459.404 313.06C456.423 314.798 455.544 318.886 455.271 320.896L455.672 320.967C455.897 316.779 457.794 314.019 459.404 313.06C459.456 313.03 459.508 313.001 459.561 312.972C459.509 313 459.457 313.029 459.404 313.06Z" fill="#727785"/>
<path d="M456.671 314.347C456.207 315.022 456.433 315.988 456.578 316.447L456.671 316.421C456.295 315.5 456.422 314.716 456.671 314.347C456.679 314.335 456.687 314.323 456.695 314.312C456.687 314.323 456.679 314.335 456.671 314.347Z" fill="#727785"/>
<path d="M458.203 314.794C457.976 315.182 457.473 315.299 457.227 315.335L457.22 315.283C457.732 315.252 458.078 315.004 458.203 314.794C458.207 314.787 458.211 314.78 458.214 314.774C458.211 314.78 458.207 314.787 458.203 314.794Z" fill="#727785"/>
<path d="M455.561 315.907C455.287 316.679 455.754 317.554 456.012 317.96L456.096 317.912C455.495 317.118 455.416 316.327 455.561 315.907C455.566 315.894 455.571 315.88 455.576 315.867C455.571 315.88 455.566 315.893 455.561 315.907Z" fill="#727785"/>
<path d="M458.151 316.211C457.746 316.923 456.778 317.141 456.302 317.211L456.284 317.116C457.277 317.052 457.928 316.596 458.151 316.211C458.158 316.199 458.165 316.187 458.172 316.174C458.165 316.186 458.158 316.199 458.151 316.211Z" fill="#727785"/>
<path d="M458.283 317.766C457.72 318.799 456.421 319.142 455.783 319.257L455.762 319.121C457.09 318.999 457.973 318.324 458.283 317.766C458.293 317.749 458.303 317.731 458.312 317.712C458.303 317.73 458.293 317.748 458.283 317.766Z" fill="#727785"/>
<path d="M427.233 317.483C427.183 316.602 426.892 315.695 426.201 315.031C427.933 315.233 428.554 315.763 429.213 316.529C430.806 318.38 429.697 320.381 428.706 319.961C427.715 319.54 427.286 318.397 427.233 317.483Z" fill="#E5E6ED"/>
<path d="M427.258 315.586C429 316.631 429.487 319.042 429.633 320.227L429.397 320.266C429.294 317.8 428.198 316.162 427.258 315.586C427.228 315.568 427.198 315.551 427.167 315.534C427.197 315.55 427.227 315.568 427.258 315.586Z" fill="#727785"/>
<path d="M428.857 316.363C429.125 316.764 428.985 317.331 428.897 317.6L428.842 317.584C429.07 317.045 429.001 316.582 428.857 316.363C428.853 316.357 428.848 316.35 428.843 316.343C428.848 316.349 428.853 316.356 428.857 316.363Z" fill="#727785"/>
<path d="M427.952 316.615C428.083 316.846 428.378 316.918 428.523 316.941L428.527 316.91C428.226 316.888 428.024 316.74 427.952 316.615C427.95 316.611 427.948 316.607 427.946 316.603C427.948 316.607 427.95 316.611 427.952 316.615Z" fill="#727785"/>
<path d="M429.499 317.289C429.654 317.745 429.373 318.257 429.218 318.494L429.169 318.465C429.529 318.003 429.581 317.538 429.499 317.289C429.496 317.282 429.493 317.274 429.49 317.266C429.493 317.273 429.496 317.281 429.499 317.289Z" fill="#727785"/>
<path d="M427.973 317.45C428.206 317.871 428.774 318.007 429.053 318.051L429.065 317.995C428.481 317.951 428.101 317.677 427.973 317.45C427.969 317.442 427.965 317.435 427.961 317.428C427.964 317.435 427.968 317.442 427.973 317.45Z" fill="#727785"/>
<path d="M427.883 318.364C428.207 318.975 428.969 319.187 429.344 319.259L429.357 319.179C428.576 319.098 428.062 318.694 427.883 318.364C427.878 318.353 427.872 318.342 427.867 318.332C427.872 318.342 427.878 318.353 427.883 318.364Z" fill="#727785"/>
<path d="M111.607 367.039H95.7982C77.4822 367.039 85.3844 361.828 90.0179 360.817C79.6606 357.28 87.2923 350.616 92.5275 353.396C89.2568 341.269 100.432 343.795 102.612 350.616C106.973 343.542 114.605 347.079 109.971 354.659C117.876 351.375 117.876 357.943 114.605 359.965C122.509 361.228 118.092 363.596 113.731 363.596C118.909 366.375 115.094 367.039 111.607 367.039Z" fill="#EDEEF2"/>
<path d="M120.375 366.301H112.302C102.949 366.301 106.984 363.522 109.351 362.983C104.062 361.096 107.959 357.542 110.632 359.025C108.962 352.557 114.668 353.904 115.782 357.542C118.009 353.769 121.906 355.656 119.54 359.698C123.576 357.947 123.576 361.45 121.906 362.528C125.942 363.202 123.686 364.465 121.459 364.465C124.104 365.947 122.155 366.301 120.375 366.301Z" fill="#DFE0E6"/>
<path d="M84.286 348.344C83.8574 347.736 83.246 347.217 82.4567 347.05C83.7846 346.424 84.4639 346.526 85.276 346.78C87.2389 347.394 87.3371 349.318 86.4416 349.459C85.5461 349.599 84.7302 348.973 84.286 348.344Z" fill="#E5E6ED"/>
<path d="M83.4593 346.977C85.1691 346.948 86.5907 348.454 87.2226 349.236L87.0708 349.369C85.9003 347.653 84.3877 346.97 83.4593 346.977C83.4298 346.977 83.4002 346.978 83.3705 346.98C83.3995 346.978 83.4291 346.977 83.4593 346.977Z" fill="#727785"/>
<path d="M84.9481 346.82C85.3178 346.987 85.4701 347.455 85.5265 347.686L85.4804 347.7C85.4033 347.213 85.148 346.913 84.9481 346.82C84.9417 346.817 84.9352 346.815 84.9287 346.812C84.9351 346.814 84.9415 346.817 84.9481 346.82Z" fill="#727785"/>
<path d="M84.4135 347.403C84.6095 347.51 84.8524 347.43 84.9662 347.382L84.9556 347.358C84.7307 347.476 84.5204 347.46 84.4135 347.403C84.4102 347.401 84.4068 347.399 84.4034 347.397C84.4067 347.399 84.4101 347.401 84.4135 347.403Z" fill="#727785"/>
<path d="M85.8189 347.197C86.1332 347.453 86.16 347.944 86.1547 348.183L86.1069 348.184C86.1577 347.693 85.9882 347.338 85.8189 347.197C85.8135 347.192 85.808 347.188 85.8024 347.184C85.8079 347.188 85.8134 347.192 85.8189 347.197Z" fill="#727785"/>
<path d="M84.7991 347.991C85.1536 348.188 85.6197 348.032 85.8395 347.939L85.8226 347.895C85.3855 348.123 84.9925 348.096 84.7991 347.991C84.793 347.987 84.7869 347.984 84.7809 347.98C84.7868 347.984 84.7928 347.987 84.7991 347.991Z" fill="#727785"/>
<path d="M85.1425 348.683C85.6463 348.977 86.2848 348.788 86.5847 348.673L86.5586 348.61C85.9646 348.9 85.4173 348.84 85.1425 348.683C85.1338 348.678 85.1251 348.673 85.1165 348.668C85.1249 348.673 85.1335 348.678 85.1425 348.683Z" fill="#727785"/>
<path d="M121.123 353.509C121.552 352.902 122.163 352.383 122.952 352.216C121.624 351.59 120.945 351.692 120.133 351.946C118.17 352.56 118.072 354.484 118.967 354.624C119.863 354.765 120.679 354.139 121.123 353.509Z" fill="#E5E6ED"/>
<path d="M121.95 352.143C120.24 352.114 118.818 353.62 118.186 354.402L118.338 354.535C119.509 352.818 121.021 352.135 121.95 352.143C121.979 352.143 122.009 352.144 122.038 352.145C122.009 352.144 121.98 352.143 121.95 352.143Z" fill="#727785"/>
<path d="M120.461 351.986C120.091 352.153 119.939 352.62 119.883 352.852L119.929 352.865C120.006 352.378 120.261 352.079 120.461 351.986C120.467 351.983 120.474 351.98 120.48 351.978C120.474 351.98 120.467 351.983 120.461 351.986Z" fill="#727785"/>
<path d="M120.995 352.569C120.8 352.675 120.557 352.595 120.443 352.548L120.453 352.524C120.678 352.642 120.889 352.626 120.995 352.569C120.999 352.567 121.002 352.565 121.006 352.563C121.002 352.565 120.999 352.567 120.995 352.569Z" fill="#727785"/>
<path d="M119.59 352.362C119.276 352.619 119.249 353.11 119.254 353.348L119.302 353.349C119.251 352.859 119.421 352.503 119.59 352.362C119.596 352.358 119.601 352.354 119.607 352.349C119.601 352.353 119.596 352.358 119.59 352.362Z" fill="#727785"/>
<path d="M120.61 353.156C120.255 353.354 119.789 353.198 119.57 353.105L119.586 353.06C120.024 353.288 120.416 353.262 120.61 353.156C120.616 353.153 120.622 353.149 120.628 353.146C120.622 353.149 120.616 353.153 120.61 353.156Z" fill="#727785"/>
<path d="M120.267 353.849C119.763 354.142 119.124 353.954 118.824 353.839L118.85 353.776C119.444 354.065 119.992 354.006 120.267 353.849C120.275 353.844 120.284 353.839 120.292 353.834C120.284 353.839 120.275 353.844 120.267 353.849Z" fill="#727785"/>
<path d="M104.643 344.844C104.695 344.102 104.949 343.341 105.537 342.79C104.077 342.942 103.549 343.381 102.986 344.019C101.625 345.562 102.538 347.258 103.377 346.914C104.216 346.571 104.589 345.613 104.643 344.844Z" fill="#E5E6ED"/>
<path d="M104.642 343.246C103.165 344.108 102.729 346.133 102.594 347.129L102.792 347.164C102.904 345.089 103.844 343.721 104.642 343.246C104.667 343.232 104.693 343.217 104.719 343.203C104.694 343.216 104.668 343.231 104.642 343.246Z" fill="#727785"/>
<path d="M103.287 343.884C103.058 344.218 103.169 344.697 103.241 344.924L103.288 344.912C103.101 344.455 103.164 344.067 103.287 343.884C103.291 343.878 103.295 343.872 103.299 343.867C103.295 343.872 103.291 343.878 103.287 343.884Z" fill="#727785"/>
<path d="M104.046 344.105C103.934 344.298 103.685 344.356 103.563 344.374L103.56 344.348C103.813 344.332 103.985 344.209 104.046 344.105C104.048 344.102 104.05 344.099 104.052 344.095C104.05 344.099 104.049 344.102 104.046 344.105Z" fill="#727785"/>
<path d="M102.738 344.657C102.602 345.039 102.833 345.473 102.961 345.674L103.003 345.65C102.705 345.257 102.666 344.865 102.738 344.657C102.74 344.65 102.742 344.644 102.745 344.637C102.742 344.644 102.74 344.65 102.738 344.657Z" fill="#727785"/>
<path d="M104.021 344.808C103.82 345.16 103.341 345.268 103.105 345.303L103.096 345.256C103.588 345.224 103.91 344.998 104.021 344.808C104.024 344.802 104.028 344.795 104.031 344.789C104.028 344.795 104.025 344.801 104.021 344.808Z" fill="#727785"/>
<path d="M104.086 345.578C103.807 346.09 103.164 346.26 102.847 346.317L102.837 346.249C103.495 346.189 103.932 345.855 104.086 345.578C104.091 345.569 104.096 345.56 104.1 345.551C104.096 345.56 104.091 345.569 104.086 345.578Z" fill="#727785"/>
<path d="M89.0809 344.7C89.0559 344.263 88.9119 343.814 88.5696 343.485C89.4277 343.585 89.7351 343.848 90.0617 344.227C90.8511 345.144 90.3016 346.136 89.8107 345.927C89.3197 345.719 89.1068 345.153 89.0809 344.7Z" fill="#E5E6ED"/>
<path d="M89.0932 343.76C89.9561 344.278 90.1976 345.472 90.2699 346.059L90.1528 346.078C90.1021 344.857 89.5591 344.045 89.0932 343.76C89.0783 343.751 89.0632 343.742 89.048 343.734C89.063 343.742 89.078 343.751 89.0932 343.76Z" fill="#727785"/>
<path d="M89.8856 344.145C90.0183 344.343 89.949 344.624 89.905 344.758L89.878 344.75C89.9909 344.483 89.9566 344.253 89.8856 344.145C89.8833 344.142 89.881 344.138 89.8785 344.135C89.8809 344.138 89.8833 344.141 89.8856 344.145Z" fill="#727785"/>
<path d="M89.4372 344.27C89.502 344.384 89.6481 344.42 89.7199 344.431L89.722 344.416C89.5729 344.405 89.4729 344.332 89.4372 344.27C89.4361 344.268 89.435 344.266 89.434 344.264C89.435 344.266 89.4361 344.268 89.4372 344.27Z" fill="#727785"/>
<path d="M90.2032 344.604C90.2803 344.83 90.1411 345.083 90.0642 345.201L90.0401 345.186C90.218 344.957 90.244 344.727 90.2032 344.604C90.2019 344.6 90.2005 344.596 90.199 344.592C90.2005 344.596 90.2019 344.6 90.2032 344.604Z" fill="#727785"/>
<path d="M89.4471 344.683C89.5627 344.892 89.844 344.959 89.9826 344.981L89.9881 344.954C89.6989 344.932 89.5109 344.796 89.4471 344.683C89.4451 344.68 89.4432 344.676 89.4413 344.672C89.4431 344.676 89.445 344.68 89.4471 344.683Z" fill="#727785"/>
<path d="M89.403 345.136C89.5634 345.439 89.9409 345.544 90.1265 345.579L90.1331 345.54C89.7464 345.5 89.4915 345.3 89.403 345.136C89.4002 345.131 89.3975 345.125 89.3949 345.12C89.3974 345.125 89.4001 345.131 89.403 345.136Z" fill="#727785"/>
<path d="M116.328 349.866C116.353 349.429 116.497 348.979 116.839 348.651C115.981 348.751 115.674 349.013 115.347 349.393C114.558 350.31 115.107 351.301 115.598 351.093C116.089 350.885 116.302 350.318 116.328 349.866Z" fill="#E5E6ED"/>
<path d="M116.316 348.926C115.453 349.443 115.212 350.638 115.139 351.225L115.256 351.244C115.307 350.023 115.85 349.211 116.316 348.926C116.331 348.917 116.346 348.908 116.361 348.9C116.346 348.908 116.331 348.917 116.316 348.926Z" fill="#727785"/>
<path d="M115.524 349.311C115.391 349.509 115.46 349.79 115.504 349.923L115.531 349.916C115.418 349.648 115.453 349.419 115.524 349.311C115.526 349.307 115.528 349.304 115.531 349.301C115.528 349.304 115.526 349.307 115.524 349.311Z" fill="#727785"/>
<path d="M115.972 349.436C115.907 349.55 115.761 349.585 115.689 349.597L115.687 349.582C115.836 349.571 115.936 349.497 115.972 349.436C115.973 349.434 115.974 349.432 115.975 349.43C115.974 349.432 115.973 349.434 115.972 349.436Z" fill="#727785"/>
<path d="M115.206 349.77C115.129 349.996 115.268 350.249 115.345 350.367L115.369 350.352C115.191 350.123 115.165 349.893 115.206 349.77C115.207 349.766 115.209 349.762 115.21 349.758C115.209 349.762 115.207 349.766 115.206 349.77Z" fill="#727785"/>
<path d="M115.962 349.849C115.846 350.058 115.565 350.125 115.427 350.147L115.421 350.119C115.71 350.097 115.898 349.962 115.962 349.849C115.964 349.845 115.966 349.842 115.968 349.838C115.966 349.842 115.964 349.845 115.962 349.849Z" fill="#727785"/>
<path d="M116.006 350.302C115.846 350.605 115.468 350.709 115.283 350.745L115.276 350.706C115.663 350.665 115.918 350.465 116.006 350.302C116.009 350.296 116.012 350.291 116.014 350.286C116.012 350.291 116.009 350.296 116.006 350.302Z" fill="#727785"/>
<path d="M172.673 367.039H156.865C138.549 367.039 146.451 361.828 151.085 360.817C140.727 357.28 148.359 350.616 153.594 353.396C150.323 341.269 161.498 343.795 163.679 350.616C168.04 343.542 175.672 347.079 171.038 354.659C178.942 351.375 178.942 357.943 175.672 359.965C183.576 361.228 179.158 363.596 174.797 363.596C179.976 366.375 176.16 367.039 172.673 367.039Z" fill="#EDEEF2"/>
<path d="M181.441 366.301H173.369C164.016 366.301 168.051 363.522 170.417 362.983C165.128 361.096 169.025 357.542 171.699 359.025C170.029 352.557 175.735 353.904 176.848 357.542C179.075 353.769 182.972 355.656 180.606 359.698C184.642 357.947 184.642 361.45 182.972 362.528C187.008 363.202 184.753 364.465 182.526 364.465C185.17 365.947 183.222 366.301 181.441 366.301Z" fill="#DFE0E6"/>
<path d="M145.353 348.344C144.924 347.736 144.313 347.217 143.523 347.05C144.851 346.424 145.531 346.526 146.343 346.78C148.306 347.394 148.404 349.318 147.508 349.459C146.613 349.599 145.797 348.973 145.353 348.344Z" fill="#E5E6ED"/>
<path d="M144.526 346.977C146.236 346.948 147.657 348.454 148.289 349.236L148.137 349.369C146.967 347.653 145.454 346.97 144.526 346.977C144.496 346.977 144.467 346.978 144.437 346.98C144.466 346.978 144.496 346.977 144.526 346.977Z" fill="#727785"/>
<path d="M146.015 346.82C146.384 346.987 146.537 347.455 146.593 347.686L146.547 347.7C146.47 347.213 146.215 346.913 146.015 346.82C146.008 346.817 146.002 346.815 145.995 346.812C146.002 346.814 146.008 346.817 146.015 346.82Z" fill="#727785"/>
<path d="M145.48 347.403C145.676 347.51 145.919 347.43 146.033 347.382L146.022 347.358C145.797 347.476 145.587 347.46 145.48 347.403C145.477 347.401 145.473 347.399 145.47 347.397C145.473 347.399 145.477 347.401 145.48 347.403Z" fill="#727785"/>
<path d="M146.885 347.197C147.2 347.453 147.227 347.944 147.221 348.183L147.173 348.184C147.224 347.693 147.055 347.338 146.885 347.197C146.88 347.192 146.875 347.188 146.869 347.184C146.874 347.188 146.88 347.192 146.885 347.197Z" fill="#727785"/>
<path d="M145.866 347.991C146.22 348.188 146.686 348.032 146.906 347.939L146.889 347.895C146.452 348.123 146.059 348.096 145.866 347.991C145.86 347.987 145.854 347.984 145.848 347.98C145.853 347.984 145.859 347.987 145.866 347.991Z" fill="#727785"/>
<path d="M146.209 348.683C146.713 348.977 147.351 348.788 147.651 348.673L147.625 348.61C147.031 348.9 146.484 348.84 146.209 348.683C146.2 348.678 146.192 348.673 146.183 348.668C146.192 348.673 146.2 348.678 146.209 348.683Z" fill="#727785"/>
<path d="M182.19 353.509C182.618 352.902 183.23 352.383 184.019 352.216C182.691 351.59 182.012 351.692 181.2 351.946C179.237 352.56 179.139 354.484 180.034 354.624C180.929 354.765 181.745 354.139 182.19 353.509Z" fill="#E5E6ED"/>
<path d="M183.016 352.143C181.307 352.114 179.885 353.62 179.253 354.402L179.405 354.535C180.575 352.818 182.088 352.135 183.016 352.143C183.046 352.143 183.075 352.144 183.105 352.145C183.076 352.144 183.047 352.143 183.016 352.143Z" fill="#727785"/>
<path d="M181.528 351.986C181.158 352.153 181.006 352.62 180.949 352.852L180.995 352.865C181.072 352.378 181.328 352.079 181.528 351.986C181.534 351.983 181.54 351.98 181.547 351.978C181.541 351.98 181.534 351.983 181.528 351.986Z" fill="#727785"/>
<path d="M182.062 352.569C181.866 352.675 181.623 352.595 181.509 352.548L181.52 352.524C181.745 352.642 181.955 352.626 182.062 352.569C182.065 352.567 182.069 352.565 182.072 352.563C182.069 352.565 182.066 352.567 182.062 352.569Z" fill="#727785"/>
<path d="M180.657 352.362C180.342 352.619 180.316 353.11 180.321 353.348L180.369 353.349C180.318 352.859 180.487 352.503 180.657 352.362C180.662 352.358 180.668 352.354 180.673 352.349C180.668 352.353 180.662 352.358 180.657 352.362Z" fill="#727785"/>
<path d="M181.677 353.156C181.322 353.354 180.856 353.198 180.636 353.105L180.653 353.06C181.09 353.288 181.483 353.262 181.677 353.156C181.683 353.153 181.689 353.149 181.695 353.146C181.689 353.149 181.683 353.153 181.677 353.156Z" fill="#727785"/>
<path d="M181.333 353.849C180.829 354.142 180.191 353.954 179.891 353.839L179.917 353.776C180.511 354.065 181.058 354.006 181.333 353.849C181.342 353.844 181.351 353.839 181.359 353.834C181.351 353.839 181.342 353.844 181.333 353.849Z" fill="#727785"/>
<path d="M165.71 344.844C165.761 344.102 166.015 343.341 166.604 342.79C165.144 342.942 164.616 343.381 164.053 344.019C162.692 345.562 163.605 347.258 164.443 346.914C165.282 346.571 165.656 345.613 165.71 344.844Z" fill="#E5E6ED"/>
<path d="M165.709 343.246C164.231 344.108 163.796 346.133 163.66 347.129L163.859 347.164C163.971 345.089 164.911 343.721 165.709 343.246C165.734 343.232 165.76 343.217 165.786 343.203C165.76 343.216 165.734 343.231 165.709 343.246Z" fill="#727785"/>
<path d="M164.354 343.884C164.124 344.218 164.236 344.697 164.308 344.924L164.354 344.912C164.168 344.455 164.231 344.067 164.354 343.884C164.358 343.878 164.362 343.872 164.366 343.867C164.362 343.872 164.358 343.878 164.354 343.884Z" fill="#727785"/>
<path d="M165.113 344.105C165.001 344.298 164.752 344.356 164.629 344.374L164.626 344.348C164.88 344.332 165.051 344.209 165.113 344.105C165.115 344.102 165.117 344.099 165.119 344.095C165.117 344.099 165.115 344.102 165.113 344.105Z" fill="#727785"/>
<path d="M163.804 344.657C163.668 345.039 163.9 345.473 164.028 345.674L164.069 345.65C163.772 345.257 163.732 344.865 163.804 344.657C163.807 344.65 163.809 344.644 163.812 344.637C163.809 344.644 163.807 344.65 163.804 344.657Z" fill="#727785"/>
<path d="M165.088 344.808C164.887 345.16 164.407 345.268 164.171 345.303L164.163 345.256C164.655 345.224 164.977 344.998 165.088 344.808C165.091 344.802 165.094 344.795 165.098 344.789C165.095 344.795 165.091 344.801 165.088 344.808Z" fill="#727785"/>
<path d="M165.153 345.578C164.874 346.09 164.23 346.26 163.914 346.317L163.904 346.249C164.562 346.189 164.999 345.855 165.153 345.578C165.158 345.569 165.162 345.56 165.167 345.551C165.163 345.56 165.158 345.569 165.153 345.578Z" fill="#727785"/>
<path d="M150.148 344.7C150.123 344.263 149.979 343.814 149.636 343.485C150.494 343.585 150.802 343.848 151.128 344.227C151.918 345.144 151.368 346.136 150.877 345.927C150.386 345.719 150.173 345.153 150.148 344.7Z" fill="#E5E6ED"/>
<path d="M150.16 343.76C151.023 344.278 151.264 345.472 151.336 346.059L151.219 346.078C151.169 344.857 150.626 344.045 150.16 343.76C150.145 343.751 150.13 343.742 150.115 343.734C150.129 343.742 150.145 343.751 150.16 343.76Z" fill="#727785"/>
<path d="M150.952 344.145C151.085 344.343 151.015 344.624 150.971 344.758L150.944 344.75C151.057 344.483 151.023 344.253 150.952 344.145C150.95 344.142 150.947 344.138 150.945 344.135C150.947 344.138 150.95 344.141 150.952 344.145Z" fill="#727785"/>
<path d="M150.504 344.27C150.569 344.384 150.715 344.42 150.786 344.431L150.789 344.416C150.639 344.405 150.539 344.332 150.504 344.27C150.503 344.268 150.502 344.266 150.5 344.264C150.502 344.266 150.503 344.268 150.504 344.27Z" fill="#727785"/>
<path d="M151.27 344.604C151.347 344.83 151.208 345.083 151.131 345.201L151.107 345.186C151.285 344.957 151.31 344.727 151.27 344.604C151.268 344.6 151.267 344.596 151.266 344.592C151.267 344.596 151.268 344.6 151.27 344.604Z" fill="#727785"/>
<path d="M150.514 344.683C150.629 344.892 150.91 344.959 151.049 344.981L151.055 344.954C150.765 344.932 150.577 344.796 150.514 344.683C150.512 344.68 150.51 344.676 150.508 344.672C150.51 344.676 150.512 344.68 150.514 344.683Z" fill="#727785"/>
<path d="M150.469 345.136C150.63 345.439 151.007 345.544 151.193 345.579L151.2 345.54C150.813 345.5 150.558 345.3 150.469 345.136C150.467 345.131 150.464 345.125 150.461 345.12C150.464 345.125 150.467 345.131 150.469 345.136Z" fill="#727785"/>
<path d="M177.395 349.866C177.42 349.429 177.564 348.979 177.906 348.651C177.048 348.751 176.741 349.013 176.414 349.393C175.625 350.31 176.174 351.301 176.665 351.093C177.156 350.885 177.369 350.318 177.395 349.866Z" fill="#E5E6ED"/>
<path d="M177.383 348.926C176.52 349.443 176.278 350.638 176.206 351.225L176.323 351.244C176.374 350.023 176.917 349.211 177.383 348.926C177.397 348.917 177.413 348.908 177.428 348.9C177.413 348.908 177.398 348.917 177.383 348.926Z" fill="#727785"/>
<path d="M176.59 349.311C176.457 349.509 176.527 349.79 176.571 349.923L176.598 349.916C176.485 349.648 176.519 349.419 176.59 349.311C176.592 349.307 176.595 349.304 176.597 349.301C176.595 349.304 176.592 349.307 176.59 349.311Z" fill="#727785"/>
<path d="M177.039 349.436C176.974 349.55 176.828 349.585 176.756 349.597L176.754 349.582C176.903 349.571 177.003 349.497 177.039 349.436C177.04 349.434 177.041 349.432 177.042 349.43C177.041 349.432 177.04 349.434 177.039 349.436Z" fill="#727785"/>
<path d="M176.273 349.77C176.195 349.996 176.335 350.249 176.412 350.367L176.436 350.352C176.258 350.123 176.232 349.893 176.273 349.77C176.274 349.766 176.275 349.762 176.277 349.758C176.275 349.762 176.274 349.766 176.273 349.77Z" fill="#727785"/>
<path d="M177.029 349.849C176.913 350.058 176.632 350.125 176.493 350.147L176.488 350.119C176.777 350.097 176.965 349.962 177.029 349.849C177.031 349.845 177.033 349.842 177.034 349.838C177.033 349.842 177.031 349.845 177.029 349.849Z" fill="#727785"/>
<path d="M177.073 350.302C176.912 350.605 176.535 350.709 176.349 350.745L176.343 350.706C176.729 350.665 176.984 350.465 177.073 350.302C177.076 350.296 177.078 350.291 177.081 350.286C177.078 350.291 177.076 350.296 177.073 350.302Z" fill="#727785"/>
<rect x="292.439" y="171.923" width="11.9155" height="193.626" fill="#20242E"/>
<rect x="292.439" y="171.923" width="8.9366" height="193.626" fill="#334680"/>
<path d="M339.318 67.0125C342.627 67.0125 345.684 68.7777 347.338 71.6433L387.513 141.228C389.168 144.094 389.168 147.624 387.513 150.49L347.338 220.075C345.684 222.94 342.627 224.706 339.318 224.706L258.968 224.706C255.659 224.706 252.602 222.94 250.947 220.075L210.772 150.49C209.118 147.624 209.118 144.094 210.772 141.228L250.947 71.6433C252.602 68.7777 255.659 67.0125 258.968 67.0125L339.318 67.0125Z" fill="#A855F7"/>
<path fill-rule="evenodd" clip-rule="evenodd" d="M230.76 185.111C288.208 178.871 332.922 130.207 332.922 71.1005C332.922 69.7321 332.898 68.3693 332.85 67.0126L258.968 67.0126C255.659 67.0126 252.602 68.7778 250.947 71.6434L210.772 141.228C209.118 144.094 209.118 147.624 210.772 150.49L230.76 185.111Z" fill="white" fill-opacity="0.15"/>
<path d="M340.035 79.4815L375.976 141.733C377.188 143.832 377.188 146.419 375.976 148.518L340.035 210.769C338.823 212.868 336.583 214.162 334.159 214.162L262.277 214.162C259.853 214.162 257.613 212.868 256.401 210.769L220.46 148.518C219.248 146.419 219.248 143.832 220.46 141.733L256.401 79.4815C257.613 77.3821 259.853 76.0888 262.277 76.0888L334.159 76.0888C336.583 76.0888 338.823 77.3821 340.035 79.4815Z" stroke="white" stroke-width="3"/>
<path d="M286.266 140.957V136.357H284.026V129.877H278.786V136.357H273.466L281.346 117.757H276.106L268.226 136.357V140.957H278.786V145.357H284.026V140.957H286.266ZM291.686 143.437C293.046 145.037 295.126 145.797 297.926 145.797C300.726 145.797 302.766 144.997 304.126 143.397C305.486 141.797 306.166 139.437 306.166 136.277V126.517C306.166 123.477 305.486 121.197 304.126 119.637C302.766 118.117 300.726 117.317 297.926 117.317C295.206 117.317 293.166 118.117 291.766 119.677C290.366 121.237 289.686 123.517 289.686 126.517V136.277C289.686 139.477 290.326 141.837 291.686 143.437ZM300.286 140.037C299.886 140.837 299.086 141.237 297.926 141.237C296.766 141.237 295.966 140.837 295.566 140.037C295.166 139.237 294.966 137.837 294.966 135.837V127.277C294.966 125.317 295.166 123.917 295.566 123.117C295.966 122.317 296.726 121.917 297.926 121.917C299.086 121.917 299.886 122.317 300.286 123.117C300.686 123.917 300.926 125.317 300.926 127.277V135.837C300.926 137.837 300.686 139.237 300.286 140.037ZM327.594 140.957V136.357H325.354V129.877H320.114V136.357H314.794L322.674 117.757H317.434L309.554 136.357V140.957H320.114V145.357H325.354V140.957H327.594Z" fill="white"/>
<path d="M2 367.039H597.773" stroke="#20242E" stroke-width="4" stroke-linecap="round" stroke-linejoin="round"/>
</svg>
