<svg width="600" height="371" viewBox="0 0 600 371" fill="none" xmlns="http://www.w3.org/2000/svg">
<path fill-rule="evenodd" clip-rule="evenodd" d="M471.026 367.039C503.651 328.204 523.301 278.104 523.301 223.415C523.301 100.026 423.275 0 299.887 0C176.498 0 76.4717 100.026 76.4717 223.415C76.4717 278.104 96.122 328.204 128.747 367.039H471.026Z" fill="#F0F3FD"/>
<path opacity="0.7" fill-rule="evenodd" clip-rule="evenodd" d="M238.82 91.3927C238.82 91.4953 238.818 91.5975 238.816 91.6994C245.203 91.8579 250.332 97.0851 250.332 103.51C250.332 109.934 245.205 115.16 238.82 115.321V115.325H238.547C238.537 115.325 238.527 115.325 238.517 115.325C238.507 115.325 238.497 115.325 238.487 115.325H215.191V115.321C215.09 115.323 214.989 115.325 214.888 115.325C208.363 115.325 203.073 110.035 203.073 103.51C203.073 96.9852 208.363 91.6957 214.888 91.6957C214.991 91.6957 215.093 91.697 215.195 91.6996C215.192 91.5976 215.191 91.4953 215.191 91.3927C215.191 84.8678 220.48 79.5782 227.005 79.5782C233.53 79.5782 238.82 84.8678 238.82 91.3927Z" fill="white"/>
<g opacity="0.15">
<path fill-rule="evenodd" clip-rule="evenodd" d="M162.109 154.06C161.945 154.255 161.839 154.491 161.802 154.743L154.519 204.317C154.428 204.932 154.763 205.531 155.334 205.776L162.828 208.987C162.954 209.041 163.036 209.165 163.036 209.302V224.486C163.036 225.05 163.492 225.506 164.056 225.506C164.619 225.506 165.076 225.05 165.076 224.486V207.881C165.076 207.879 165.076 207.876 165.076 207.873L165.076 195.925L165.076 151.472C165.076 151.152 164.677 151.007 164.471 151.251L162.109 154.06Z" fill="#A4A4A4"/>
<path fill-rule="evenodd" clip-rule="evenodd" d="M162.109 153.04C161.945 153.235 161.839 153.471 161.802 153.723L154.519 203.297C154.428 203.912 154.763 204.511 155.334 204.756L162.828 207.967C162.954 208.021 163.036 208.145 163.036 208.282V223.466C163.036 224.03 163.492 224.486 164.056 224.486C164.619 224.486 165.076 224.03 165.076 223.466V206.861C165.076 206.858 165.076 206.856 165.076 206.853L165.076 194.905L165.076 150.452C165.076 150.132 164.677 149.987 164.471 150.231L162.109 153.04Z" fill="#C4C4C4"/>
<path fill-rule="evenodd" clip-rule="evenodd" d="M104.582 260.739C104.832 260.783 105.09 260.757 105.327 260.663L151.901 242.184C152.479 241.954 152.83 241.365 152.756 240.748L151.791 232.652C151.774 232.516 151.841 232.384 151.96 232.315L165.11 224.723C165.597 224.441 165.765 223.817 165.483 223.33C165.201 222.842 164.577 222.675 164.089 222.956L139.355 237.237C139.353 237.238 139.351 237.239 139.349 237.24L100.857 259.463C100.58 259.623 100.654 260.041 100.969 260.097L104.582 260.739Z" fill="#A4A4A4"/>
<path fill-rule="evenodd" clip-rule="evenodd" d="M104.072 260.228C104.323 260.273 104.58 260.247 104.817 260.153L151.392 241.674C151.969 241.444 152.32 240.855 152.247 240.238L151.281 232.142C151.265 232.006 151.331 231.873 151.45 231.805L164.599 224.213C165.087 223.931 165.254 223.307 164.973 222.82C164.691 222.332 164.067 222.164 163.579 222.446L138.844 236.727C138.839 236.73 138.833 236.734 138.827 236.737L100.347 258.953C100.071 259.113 100.144 259.531 100.459 259.587L104.072 260.228Z" fill="#C4C4C4"/>
<path fill-rule="evenodd" clip-rule="evenodd" d="M226.393 258.066C226.306 257.827 226.155 257.617 225.955 257.459L186.664 226.364C186.177 225.979 185.491 225.969 184.994 226.341L178.465 231.226C178.356 231.308 178.208 231.316 178.089 231.248L164.939 223.656C164.451 223.374 163.827 223.541 163.546 224.029C163.264 224.517 163.431 225.141 163.919 225.423L188.654 239.703C188.656 239.705 188.658 239.706 188.661 239.707L227.151 261.93C227.428 262.09 227.753 261.817 227.644 261.516L226.393 258.066Z" fill="#A4A4A4"/>
<path fill-rule="evenodd" clip-rule="evenodd" d="M226.393 257.046C226.306 256.807 226.155 256.597 225.955 256.439L186.664 225.344C186.177 224.959 185.491 224.949 184.994 225.322L178.465 230.206C178.356 230.288 178.208 230.297 178.089 230.228L164.939 222.636C164.451 222.354 163.827 222.521 163.546 223.009C163.264 223.497 163.431 224.121 163.919 224.403L188.654 238.683C188.656 238.685 188.658 238.686 188.661 238.687L227.151 260.91C227.428 261.07 227.753 260.797 227.644 260.497L226.393 257.046Z" fill="#C4C4C4"/>
<path fill-rule="evenodd" clip-rule="evenodd" d="M166.678 227.598C168.135 226.975 169.156 225.529 169.156 223.844C169.156 221.591 167.329 219.764 165.076 219.764C162.822 219.764 160.995 221.591 160.995 223.844C160.995 225.529 162.016 226.975 163.474 227.598L155.385 362.571H174.766L166.678 227.598Z" fill="#A4A4A4"/>
<path fill-rule="evenodd" clip-rule="evenodd" d="M165.658 227.598C167.115 226.975 168.136 225.529 168.136 223.844C168.136 221.591 166.309 219.764 164.056 219.764C161.802 219.764 159.975 221.591 159.975 223.844C159.975 225.529 160.996 226.975 162.453 227.598L154.365 362.571H173.746L165.658 227.598Z" fill="#C4C4C4"/>
</g>
<g opacity="0.6">
<rect x="484.576" y="182.349" width="39.7884" height="93.8295" rx="19.8942" fill="#E9EBF2"/>
<rect x="503.58" y="220.356" width="2.37543" height="146.683" rx="1.18771" fill="#E1E2E5"/>
<rect x="513.379" y="225.572" width="2.37543" height="20.0225" rx="1.18771" transform="rotate(30 513.379 225.572)" fill="#E1E2E5"/>
<rect width="2.37543" height="28.1694" rx="1.18771" transform="matrix(0.866025 -0.5 -0.5 -0.866025 504.238 257.551)" fill="#E1E2E5"/>
</g>
<rect x="442.872" y="104.899" width="56.8954" height="134.171" rx="28.4477" fill="#E9EBF2"/>
<rect x="470.046" y="159.246" width="3.39674" height="209.749" rx="1.69837" fill="#E1E2E5"/>
<rect x="484.059" y="166.705" width="3.39674" height="28.6311" rx="1.69837" transform="rotate(30 484.059 166.705)" fill="#E1E2E5"/>
<rect width="3.39674" height="40.2808" rx="1.69837" transform="matrix(0.866025 -0.5 -0.5 -0.866025 470.987 212.433)" fill="#E1E2E5"/>
<path fill-rule="evenodd" clip-rule="evenodd" d="M105.147 42.1397C104.889 42.4457 104.722 42.8173 104.664 43.2129L93.2107 121.168C93.0687 122.135 93.5952 123.076 94.4933 123.461L106.277 128.511C106.475 128.596 106.604 128.791 106.604 129.006V152.883C106.604 153.769 107.322 154.487 108.208 154.487C109.094 154.487 109.812 153.769 109.812 152.883V126.781C109.812 126.774 109.812 126.767 109.812 126.76L109.812 38.0696C109.812 37.5672 109.185 37.3385 108.861 37.723L105.147 42.1397Z" fill="#DCDFE6"/>
<path fill-rule="evenodd" clip-rule="evenodd" d="M105.147 40.5357C104.889 40.8417 104.722 41.2133 104.664 41.6089L93.2107 119.564C93.0687 120.531 93.5952 121.472 94.4933 121.857L106.277 126.907C106.475 126.992 106.604 127.187 106.604 127.402V151.279C106.604 152.165 107.322 152.883 108.208 152.883C109.094 152.883 109.812 152.165 109.812 151.279V125.177C109.812 125.17 109.812 125.163 109.812 125.156L109.812 36.4656C109.812 35.9632 109.185 35.7345 108.861 36.119L105.147 40.5357Z" fill="#E9EBF2"/>
<path fill-rule="evenodd" clip-rule="evenodd" d="M14.6871 209.889C15.0808 209.959 15.4862 209.918 15.8579 209.77L89.0958 180.712C90.004 180.351 90.5558 179.425 90.4401 178.454L88.9217 165.724C88.8962 165.51 89.0006 165.301 89.1872 165.194L109.865 153.255C110.632 152.812 110.895 151.831 110.452 151.064C110.009 150.297 109.028 150.034 108.261 150.477L69.366 172.933C69.3628 172.935 69.3596 172.937 69.3565 172.939L8.82976 207.884C8.39466 208.135 8.51021 208.793 9.00489 208.88L14.6871 209.889Z" fill="#DCDFE6"/>
<path fill-rule="evenodd" clip-rule="evenodd" d="M13.8851 209.087C14.2788 209.157 14.6842 209.116 15.0559 208.968L88.2938 179.91C89.202 179.549 89.7538 178.623 89.6381 177.652L88.1197 164.922C88.0942 164.708 88.1986 164.499 88.3852 164.392L109.063 152.453C109.83 152.01 110.093 151.029 109.65 150.262C109.207 149.495 108.226 149.232 107.459 149.675L68.5639 172.131C68.5608 172.133 68.5576 172.135 68.5545 172.137L8.02776 207.082C7.59266 207.333 7.70821 207.991 8.20289 208.078L13.8851 209.087Z" fill="#E9EBF2"/>
<path fill-rule="evenodd" clip-rule="evenodd" d="M206.232 205.687C206.096 205.311 205.858 204.981 205.544 204.733L143.76 155.836C142.993 155.23 141.915 155.215 141.133 155.8L130.867 163.481C130.695 163.61 130.462 163.623 130.275 163.516L109.597 151.577C108.83 151.134 107.849 151.397 107.406 152.165C106.963 152.932 107.226 153.913 107.993 154.356L130.594 167.404C130.602 167.409 130.609 167.413 130.617 167.417L207.425 211.762C207.86 212.014 208.371 211.585 208.2 211.112L206.232 205.687Z" fill="#DCDFE6"/>
<path fill-rule="evenodd" clip-rule="evenodd" d="M206.232 204.083C206.096 203.707 205.858 203.377 205.544 203.129L143.76 154.232C142.993 153.626 141.915 153.611 141.133 154.196L130.867 161.877C130.694 162.006 130.462 162.02 130.275 161.912L109.597 149.973C108.83 149.53 107.849 149.793 107.406 150.56C106.963 151.328 107.226 152.309 107.993 152.752L130.605 165.806C130.609 165.809 130.613 165.811 130.617 165.813L146.888 175.208L207.425 210.158C207.86 210.41 208.371 209.981 208.2 209.508L206.232 204.083Z" fill="#E9EBF2"/>
<path fill-rule="evenodd" clip-rule="evenodd" d="M112.331 157.776C114.623 156.796 116.228 154.522 116.228 151.873C116.228 148.33 113.356 145.457 109.812 145.457C106.269 145.457 103.396 148.33 103.396 151.873C103.396 154.522 105.002 156.796 107.293 157.775L94.574 370.018H125.05L112.331 157.776Z" fill="#DCDFE6"/>
<path fill-rule="evenodd" clip-rule="evenodd" d="M110.727 157.776C113.019 156.796 114.624 154.522 114.624 151.873C114.624 148.33 111.752 145.457 108.208 145.457C104.665 145.457 101.792 148.33 101.792 151.873C101.792 154.522 103.398 156.796 105.689 157.775L92.97 370.018H123.446L110.727 157.776Z" fill="#E9EBF2"/>
<path opacity="0.6" fill-rule="evenodd" clip-rule="evenodd" d="M384.937 133.198C384.937 133.25 384.936 133.301 384.935 133.352C388.156 133.432 390.742 136.068 390.742 139.308C390.742 142.548 388.157 145.183 384.937 145.264V145.266H384.789C384.788 145.266 384.786 145.266 384.784 145.266C384.783 145.266 384.781 145.266 384.78 145.266H373.022V145.264C372.971 145.265 372.92 145.266 372.869 145.266C369.578 145.266 366.911 142.599 366.911 139.308C366.911 136.018 369.578 133.351 372.869 133.351C372.921 133.351 372.972 133.351 373.024 133.353C373.022 133.301 373.022 133.25 373.022 133.198C373.022 129.907 375.689 127.24 378.979 127.24C382.27 127.24 384.937 129.907 384.937 133.198Z" fill="white"/>
<path opacity="0.5" fill-rule="evenodd" clip-rule="evenodd" d="M417.552 196.221C417.552 196.251 417.552 196.281 417.551 196.31C419.413 196.357 420.909 197.881 420.909 199.755C420.909 201.629 419.414 203.153 417.552 203.2V203.201H410.66V203.2C410.631 203.201 410.601 203.201 410.572 203.201C408.669 203.201 407.126 201.658 407.126 199.755C407.126 197.852 408.669 196.309 410.572 196.309C410.602 196.309 410.632 196.31 410.661 196.311C410.661 196.281 410.66 196.251 410.66 196.221C410.66 194.318 412.203 192.775 414.106 192.775C416.009 192.775 417.552 194.318 417.552 196.221Z" fill="white"/>
<path fill-rule="evenodd" clip-rule="evenodd" d="M322.526 59.9597C322.526 49.4074 331.08 40.853 341.632 40.853C349.463 40.853 356.193 45.5638 359.144 52.306C361.043 50.9626 363.362 50.1733 365.865 50.1733C371.754 50.1733 376.622 54.5423 377.405 60.2157H381.775C387.122 60.2157 391.457 64.5501 391.457 69.897C391.457 75.2438 387.122 79.5783 381.775 79.5783H324.462C319.115 79.5783 314.781 75.2438 314.781 69.897C314.781 65.2114 318.109 61.3033 322.531 60.4083C322.527 60.2592 322.526 60.1096 322.526 59.9597Z" fill="white"/>
<path opacity="0.6" fill-rule="evenodd" clip-rule="evenodd" d="M136.229 132.055C136.229 127.751 139.719 124.261 144.023 124.261C147.218 124.261 149.963 126.183 151.167 128.933C151.942 128.385 152.888 128.063 153.909 128.063C156.311 128.063 158.297 129.845 158.616 132.16H160.399C162.58 132.16 164.348 133.928 164.348 136.109C164.348 138.29 162.58 140.058 160.399 140.058H137.019C134.838 140.058 133.07 138.29 133.07 136.109C133.07 134.198 134.428 132.604 136.231 132.238C136.23 132.178 136.229 132.116 136.229 132.055Z" fill="white"/>
<path d="M171.184 367.039H155.375C137.059 367.039 144.962 361.828 149.595 360.817C139.238 357.28 146.869 350.616 152.105 353.396C148.834 341.269 160.009 343.795 162.189 350.616C166.55 343.542 174.182 347.079 169.549 354.659C177.453 351.375 177.453 357.943 174.182 359.965C182.086 361.228 177.669 363.596 173.308 363.596C178.487 366.375 174.671 367.039 171.184 367.039Z" fill="#EDEEF2"/>
<path d="M179.952 366.301H171.879C162.527 366.301 166.562 363.522 168.928 362.983C163.639 361.096 167.536 357.542 170.209 359.025C168.539 352.557 174.245 353.904 175.359 357.542C177.586 353.769 181.483 355.656 179.117 359.698C183.153 357.947 183.153 361.45 181.483 362.528C185.519 363.202 183.263 364.465 181.036 364.465C183.681 365.947 181.732 366.301 179.952 366.301Z" fill="#DFE0E6"/>
<path d="M143.863 348.344C143.435 347.736 142.823 347.217 142.034 347.05C143.362 346.424 144.041 346.526 144.853 346.78C146.816 347.394 146.914 349.318 146.019 349.459C145.123 349.599 144.307 348.974 143.863 348.344Z" fill="#E5E6ED"/>
<path d="M143.037 346.977C144.746 346.948 146.168 348.455 146.8 349.236L146.648 349.369C145.478 347.653 143.965 346.97 143.037 346.977C143.007 346.977 142.977 346.978 142.948 346.98C142.977 346.978 143.006 346.977 143.037 346.977Z" fill="#727785"/>
<path d="M144.525 346.82C144.895 346.987 145.047 347.455 145.104 347.686L145.058 347.7C144.98 347.213 144.725 346.913 144.525 346.82C144.519 346.817 144.512 346.815 144.506 346.812C144.512 346.814 144.519 346.817 144.525 346.82Z" fill="#727785"/>
<path d="M143.991 347.403C144.186 347.51 144.429 347.43 144.543 347.382L144.533 347.358C144.308 347.476 144.097 347.46 143.991 347.403C143.987 347.401 143.984 347.4 143.98 347.398C143.984 347.4 143.987 347.401 143.991 347.403Z" fill="#727785"/>
<path d="M145.396 347.197C145.71 347.453 145.737 347.944 145.732 348.183L145.684 348.184C145.735 347.693 145.565 347.338 145.396 347.197C145.391 347.192 145.385 347.188 145.379 347.184C145.385 347.188 145.39 347.192 145.396 347.197Z" fill="#727785"/>
<path d="M144.376 347.991C144.731 348.188 145.197 348.032 145.417 347.939L145.4 347.895C144.963 348.123 144.57 348.096 144.376 347.991C144.37 347.987 144.364 347.984 144.358 347.98C144.364 347.984 144.37 347.987 144.376 347.991Z" fill="#727785"/>
<path d="M144.72 348.683C145.223 348.977 145.862 348.788 146.162 348.673L146.136 348.61C145.542 348.9 144.994 348.84 144.72 348.683C144.711 348.678 144.702 348.673 144.694 348.668C144.702 348.673 144.711 348.678 144.72 348.683Z" fill="#727785"/>
<path d="M180.7 353.509C181.129 352.902 181.74 352.383 182.529 352.216C181.201 351.59 180.522 351.692 179.71 351.946C177.747 352.56 177.649 354.484 178.544 354.624C179.44 354.765 180.256 354.139 180.7 353.509Z" fill="#E5E6ED"/>
<path d="M181.527 352.143C179.817 352.114 178.395 353.62 177.763 354.402L177.915 354.535C179.086 352.818 180.598 352.135 181.527 352.143C181.556 352.143 181.586 352.144 181.615 352.145C181.587 352.144 181.557 352.143 181.527 352.143Z" fill="#727785"/>
<path d="M180.038 351.986C179.668 352.153 179.516 352.62 179.46 352.852L179.506 352.865C179.583 352.378 179.838 352.078 180.038 351.986C180.044 351.983 180.051 351.98 180.057 351.978C180.051 351.98 180.045 351.983 180.038 351.986Z" fill="#727785"/>
<path d="M180.573 352.569C180.377 352.675 180.134 352.595 180.02 352.548L180.031 352.524C180.255 352.642 180.466 352.626 180.573 352.569C180.576 352.567 180.579 352.565 180.583 352.563C180.58 352.565 180.576 352.567 180.573 352.569Z" fill="#727785"/>
<path d="M179.167 352.362C178.853 352.619 178.826 353.11 178.831 353.348L178.879 353.349C178.829 352.859 178.998 352.503 179.167 352.362C179.173 352.358 179.178 352.354 179.184 352.349C179.178 352.353 179.173 352.358 179.167 352.362Z" fill="#727785"/>
<path d="M180.187 353.156C179.832 353.354 179.366 353.198 179.147 353.105L179.163 353.06C179.6 353.288 179.993 353.262 180.187 353.156C180.193 353.153 180.199 353.149 180.205 353.146C180.199 353.149 180.193 353.153 180.187 353.156Z" fill="#727785"/>
<path d="M179.844 353.849C179.34 354.142 178.702 353.954 178.402 353.839L178.428 353.776C179.022 354.065 179.569 354.006 179.844 353.849C179.853 353.844 179.861 353.839 179.87 353.833C179.862 353.839 179.853 353.844 179.844 353.849Z" fill="#727785"/>
<path d="M164.22 344.844C164.272 344.102 164.526 343.341 165.115 342.79C163.654 342.942 163.126 343.381 162.563 344.019C161.202 345.562 162.115 347.258 162.954 346.914C163.793 346.571 164.166 345.613 164.22 344.844Z" fill="#E5E6ED"/>
<path d="M164.219 343.246C162.742 344.108 162.306 346.133 162.171 347.129L162.37 347.164C162.482 345.089 163.421 343.721 164.219 343.246C164.245 343.232 164.271 343.217 164.297 343.203C164.271 343.216 164.245 343.231 164.219 343.246Z" fill="#727785"/>
<path d="M162.864 343.884C162.635 344.218 162.746 344.697 162.818 344.924L162.864 344.912C162.678 344.455 162.741 344.067 162.864 343.884C162.868 343.878 162.872 343.872 162.876 343.867C162.872 343.872 162.868 343.878 162.864 343.884Z" fill="#727785"/>
<path d="M163.623 344.105C163.511 344.298 163.262 344.356 163.14 344.374L163.136 344.348C163.39 344.332 163.562 344.209 163.623 344.105C163.625 344.102 163.627 344.099 163.629 344.095C163.627 344.099 163.625 344.102 163.623 344.105Z" fill="#727785"/>
<path d="M162.315 344.657C162.179 345.039 162.41 345.473 162.538 345.674L162.58 345.65C162.282 345.257 162.243 344.865 162.315 344.657C162.317 344.65 162.319 344.644 162.322 344.637C162.319 344.644 162.317 344.65 162.315 344.657Z" fill="#727785"/>
<path d="M163.598 344.808C163.397 345.16 162.918 345.268 162.682 345.303L162.673 345.256C163.165 345.224 163.487 344.998 163.598 344.808C163.601 344.802 163.605 344.795 163.608 344.789C163.605 344.795 163.602 344.801 163.598 344.808Z" fill="#727785"/>
<path d="M163.664 345.578C163.385 346.09 162.741 346.26 162.425 346.317L162.414 346.249C163.072 346.189 163.51 345.855 163.664 345.578C163.668 345.569 163.673 345.56 163.678 345.551C163.673 345.56 163.669 345.569 163.664 345.578Z" fill="#727785"/>
<path d="M148.658 344.7C148.633 344.263 148.489 343.814 148.147 343.485C149.005 343.585 149.312 343.848 149.639 344.227C150.428 345.144 149.879 346.136 149.388 345.927C148.897 345.719 148.684 345.153 148.658 344.7Z" fill="#E5E6ED"/>
<path d="M148.671 343.76C149.534 344.278 149.775 345.472 149.847 346.059L149.73 346.079C149.68 344.857 149.137 344.045 148.671 343.76C148.656 343.751 148.641 343.743 148.625 343.734C148.64 343.742 148.656 343.751 148.671 343.76Z" fill="#727785"/>
<path d="M149.463 344.145C149.595 344.344 149.526 344.624 149.482 344.758L149.455 344.75C149.568 344.483 149.534 344.254 149.463 344.145C149.46 344.142 149.458 344.138 149.456 344.135C149.458 344.138 149.46 344.142 149.463 344.145Z" fill="#727785"/>
<path d="M149.015 344.27C149.079 344.384 149.225 344.42 149.297 344.431L149.299 344.416C149.15 344.405 149.05 344.332 149.015 344.27C149.013 344.268 149.012 344.266 149.011 344.264C149.012 344.266 149.013 344.268 149.015 344.27Z" fill="#727785"/>
<path d="M149.781 344.604C149.858 344.83 149.718 345.083 149.642 345.201L149.617 345.186C149.795 344.957 149.821 344.727 149.781 344.604C149.779 344.6 149.778 344.596 149.776 344.592C149.778 344.596 149.779 344.6 149.781 344.604Z" fill="#727785"/>
<path d="M149.024 344.683C149.14 344.892 149.421 344.959 149.56 344.981L149.565 344.954C149.276 344.932 149.088 344.796 149.024 344.683C149.022 344.68 149.02 344.676 149.019 344.672C149.02 344.676 149.022 344.68 149.024 344.683Z" fill="#727785"/>
<path d="M148.981 345.136C149.141 345.439 149.518 345.544 149.704 345.579L149.711 345.54C149.324 345.5 149.069 345.3 148.981 345.136C148.978 345.131 148.975 345.125 148.972 345.12C148.975 345.125 148.978 345.131 148.981 345.136Z" fill="#727785"/>
<path d="M175.905 349.866C175.93 349.429 176.074 348.979 176.417 348.651C175.558 348.751 175.251 349.013 174.924 349.393C174.135 350.31 174.685 351.301 175.175 351.093C175.666 350.885 175.879 350.318 175.905 349.866Z" fill="#E5E6ED"/>
<path d="M175.893 348.926C175.03 349.443 174.789 350.638 174.716 351.225L174.833 351.244C174.884 350.023 175.427 349.211 175.893 348.926C175.908 348.917 175.923 348.908 175.938 348.9C175.923 348.908 175.908 348.916 175.893 348.926Z" fill="#727785"/>
<path d="M175.101 349.311C174.968 349.509 175.037 349.79 175.081 349.923L175.108 349.916C174.996 349.648 175.03 349.419 175.101 349.311C175.103 349.307 175.105 349.304 175.108 349.301C175.106 349.304 175.103 349.307 175.101 349.311Z" fill="#727785"/>
<path d="M175.549 349.436C175.484 349.55 175.338 349.585 175.266 349.597L175.264 349.582C175.413 349.571 175.513 349.497 175.549 349.436C175.55 349.434 175.551 349.432 175.552 349.43C175.551 349.432 175.55 349.434 175.549 349.436Z" fill="#727785"/>
<path d="M174.783 349.77C174.706 349.996 174.845 350.249 174.922 350.367L174.946 350.352C174.768 350.123 174.742 349.893 174.783 349.77C174.784 349.766 174.786 349.762 174.787 349.758C174.786 349.762 174.784 349.766 174.783 349.77Z" fill="#727785"/>
<path d="M175.539 349.849C175.424 350.058 175.142 350.125 175.004 350.147L174.998 350.119C175.288 350.097 175.476 349.962 175.539 349.849C175.541 349.845 175.543 349.842 175.545 349.838C175.543 349.842 175.541 349.845 175.539 349.849Z" fill="#727785"/>
<path d="M175.583 350.302C175.423 350.605 175.045 350.709 174.86 350.745L174.853 350.706C175.24 350.665 175.495 350.465 175.583 350.302C175.586 350.296 175.589 350.291 175.591 350.286C175.589 350.291 175.586 350.296 175.583 350.302Z" fill="#727785"/>
<path d="M512.264 367.039H496.455C478.139 367.039 486.042 361.828 490.675 360.817C480.318 357.28 487.95 350.616 493.185 353.396C489.914 341.269 501.089 343.795 503.269 350.616C507.63 343.542 515.262 347.079 510.629 354.659C518.533 351.375 518.533 357.943 515.262 359.965C523.166 361.228 518.749 363.596 514.388 363.596C519.567 366.375 515.751 367.039 512.264 367.039Z" fill="#EDEEF2"/>
<path d="M521.032 366.301H512.959C503.607 366.301 507.642 363.522 510.008 362.983C504.719 361.096 508.616 357.542 511.289 359.025C509.619 352.557 515.326 353.904 516.439 357.542C518.666 353.769 522.563 355.656 520.197 359.698C524.233 357.947 524.233 361.45 522.563 362.528C526.599 363.202 524.343 364.465 522.116 364.465C524.761 365.947 522.812 366.301 521.032 366.301Z" fill="#DFE0E6"/>
<path d="M484.943 348.344C484.515 347.736 483.903 347.217 483.114 347.05C484.442 346.424 485.121 346.526 485.933 346.78C487.896 347.394 487.994 349.318 487.099 349.459C486.203 349.599 485.387 348.974 484.943 348.344Z" fill="#E5E6ED"/>
<path d="M484.117 346.977C485.826 346.948 487.248 348.455 487.88 349.236L487.728 349.369C486.558 347.653 485.045 346.97 484.117 346.977C484.087 346.977 484.058 346.978 484.028 346.98C484.057 346.978 484.086 346.977 484.117 346.977Z" fill="#727785"/>
<path d="M485.605 346.82C485.975 346.987 486.127 347.455 486.184 347.686L486.138 347.7C486.06 347.213 485.805 346.913 485.605 346.82C485.599 346.817 485.592 346.815 485.586 346.812C485.592 346.814 485.599 346.817 485.605 346.82Z" fill="#727785"/>
<path d="M485.071 347.403C485.267 347.51 485.509 347.43 485.623 347.382L485.613 347.358C485.388 347.476 485.177 347.46 485.071 347.403C485.067 347.401 485.064 347.4 485.061 347.398C485.064 347.4 485.067 347.401 485.071 347.403Z" fill="#727785"/>
<path d="M486.476 347.197C486.79 347.453 486.817 347.944 486.812 348.183L486.764 348.184C486.815 347.693 486.645 347.338 486.476 347.197C486.471 347.192 486.465 347.188 486.459 347.184C486.465 347.188 486.47 347.192 486.476 347.197Z" fill="#727785"/>
<path d="M485.457 347.991C485.811 348.188 486.277 348.032 486.497 347.939L486.48 347.895C486.043 348.123 485.65 348.096 485.457 347.991C485.451 347.987 485.445 347.984 485.438 347.98C485.444 347.984 485.45 347.987 485.457 347.991Z" fill="#727785"/>
<path d="M485.8 348.683C486.303 348.977 486.942 348.788 487.242 348.673L487.216 348.61C486.622 348.9 486.074 348.84 485.8 348.683C485.791 348.678 485.782 348.673 485.774 348.668C485.782 348.673 485.791 348.678 485.8 348.683Z" fill="#727785"/>
<path d="M521.78 353.509C522.209 352.902 522.82 352.383 523.609 352.216C522.282 351.59 521.602 351.692 520.79 351.946C518.827 352.56 518.729 354.484 519.625 354.624C520.52 354.765 521.336 354.139 521.78 353.509Z" fill="#E5E6ED"/>
<path d="M522.607 352.143C520.897 352.114 519.475 353.62 518.844 354.402L518.995 354.535C520.166 352.818 521.678 352.135 522.607 352.143C522.636 352.143 522.666 352.144 522.696 352.145C522.667 352.144 522.637 352.143 522.607 352.143Z" fill="#727785"/>
<path d="M521.118 351.986C520.748 352.153 520.596 352.62 520.54 352.852L520.586 352.865C520.663 352.378 520.918 352.078 521.118 351.986C521.124 351.983 521.131 351.98 521.137 351.978C521.131 351.98 521.125 351.983 521.118 351.986Z" fill="#727785"/>
<path d="M521.653 352.569C521.457 352.675 521.214 352.595 521.1 352.548L521.111 352.524C521.336 352.642 521.546 352.626 521.653 352.569C521.656 352.567 521.659 352.565 521.663 352.563C521.66 352.565 521.656 352.567 521.653 352.569Z" fill="#727785"/>
<path d="M520.247 352.362C519.933 352.619 519.906 353.11 519.912 353.348L519.959 353.349C519.909 352.859 520.078 352.503 520.247 352.362C520.253 352.358 520.258 352.354 520.264 352.349C520.258 352.353 520.253 352.358 520.247 352.362Z" fill="#727785"/>
<path d="M521.267 353.156C520.912 353.354 520.446 353.198 520.227 353.105L520.243 353.06C520.681 353.288 521.073 353.262 521.267 353.156C521.273 353.153 521.279 353.149 521.285 353.146C521.279 353.149 521.273 353.153 521.267 353.156Z" fill="#727785"/>
<path d="M520.924 353.849C520.42 354.142 519.782 353.954 519.482 353.839L519.508 353.776C520.102 354.065 520.649 354.006 520.924 353.849C520.933 353.844 520.941 353.839 520.95 353.833C520.942 353.839 520.933 353.844 520.924 353.849Z" fill="#727785"/>
<path d="M505.3 344.844C505.352 344.102 505.606 343.341 506.195 342.79C504.734 342.942 504.206 343.381 503.643 344.019C502.282 345.562 503.195 347.258 504.034 346.914C504.873 346.571 505.246 345.613 505.3 344.844Z" fill="#E5E6ED"/>
<path d="M505.299 343.246C503.822 344.108 503.386 346.133 503.251 347.129L503.45 347.164C503.562 345.089 504.502 343.721 505.299 343.246C505.325 343.232 505.351 343.217 505.377 343.203C505.351 343.216 505.325 343.231 505.299 343.246Z" fill="#727785"/>
<path d="M503.944 343.884C503.715 344.218 503.826 344.697 503.898 344.924L503.945 344.912C503.758 344.455 503.821 344.067 503.944 343.884C503.948 343.878 503.952 343.872 503.957 343.867C503.952 343.872 503.948 343.878 503.944 343.884Z" fill="#727785"/>
<path d="M504.704 344.105C504.591 344.298 504.342 344.356 504.22 344.374L504.217 344.348C504.47 344.332 504.642 344.209 504.704 344.105C504.706 344.102 504.708 344.099 504.709 344.095C504.708 344.099 504.706 344.102 504.704 344.105Z" fill="#727785"/>
<path d="M503.395 344.657C503.259 345.039 503.49 345.473 503.618 345.674L503.66 345.65C503.362 345.257 503.323 344.865 503.395 344.657C503.397 344.65 503.4 344.644 503.402 344.637C503.4 344.644 503.397 344.65 503.395 344.657Z" fill="#727785"/>
<path d="M504.678 344.808C504.477 345.16 503.998 345.268 503.762 345.303L503.753 345.256C504.245 345.224 504.567 344.998 504.678 344.808C504.682 344.802 504.685 344.795 504.688 344.789C504.685 344.795 504.682 344.801 504.678 344.808Z" fill="#727785"/>
<path d="M504.744 345.578C504.465 346.09 503.821 346.26 503.505 346.317L503.495 346.249C504.152 346.189 504.59 345.855 504.744 345.578C504.749 345.569 504.753 345.56 504.758 345.551C504.753 345.56 504.749 345.569 504.744 345.578Z" fill="#727785"/>
<path d="M489.738 344.7C489.713 344.263 489.569 343.814 489.227 343.485C490.085 343.585 490.393 343.848 490.719 344.227C491.508 345.144 490.959 346.136 490.468 345.927C489.977 345.719 489.764 345.153 489.738 344.7Z" fill="#E5E6ED"/>
<path d="M489.751 343.76C490.614 344.278 490.855 345.472 490.927 346.059L490.81 346.079C490.76 344.857 490.217 344.045 489.751 343.76C489.736 343.751 489.721 343.743 489.706 343.734C489.721 343.742 489.736 343.751 489.751 343.76Z" fill="#727785"/>
<path d="M490.543 344.145C490.675 344.344 490.606 344.624 490.562 344.758L490.535 344.75C490.648 344.483 490.614 344.254 490.543 344.145C490.54 344.142 490.538 344.138 490.536 344.135C490.538 344.138 490.54 344.142 490.543 344.145Z" fill="#727785"/>
<path d="M490.095 344.27C490.159 344.384 490.305 344.42 490.377 344.431L490.379 344.416C490.23 344.405 490.13 344.332 490.095 344.27C490.093 344.268 490.092 344.266 490.091 344.264C490.092 344.266 490.093 344.268 490.095 344.27Z" fill="#727785"/>
<path d="M490.861 344.604C490.938 344.83 490.798 345.083 490.722 345.201L490.697 345.186C490.875 344.957 490.901 344.727 490.861 344.604C490.859 344.6 490.858 344.596 490.856 344.592C490.858 344.596 490.859 344.6 490.861 344.604Z" fill="#727785"/>
<path d="M490.104 344.683C490.22 344.892 490.501 344.959 490.64 344.981L490.645 344.954C490.356 344.932 490.168 344.796 490.104 344.683C490.102 344.68 490.101 344.676 490.099 344.672C490.1 344.676 490.102 344.68 490.104 344.683Z" fill="#727785"/>
<path d="M490.061 345.136C490.221 345.439 490.598 345.544 490.784 345.579L490.791 345.54C490.404 345.5 490.149 345.3 490.061 345.136C490.058 345.131 490.055 345.125 490.052 345.12C490.055 345.125 490.058 345.131 490.061 345.136Z" fill="#727785"/>
<path d="M516.985 349.866C517.01 349.429 517.154 348.979 517.497 348.651C516.639 348.751 516.331 349.013 516.005 349.393C515.215 350.31 515.765 351.301 516.256 351.093C516.747 350.885 516.959 350.318 516.985 349.866Z" fill="#E5E6ED"/>
<path d="M516.973 348.926C516.11 349.443 515.869 350.638 515.796 351.225L515.913 351.244C515.964 350.023 516.507 349.211 516.973 348.926C516.988 348.917 517.003 348.908 517.018 348.9C517.003 348.908 516.988 348.916 516.973 348.926Z" fill="#727785"/>
<path d="M516.181 349.311C516.048 349.509 516.118 349.79 516.162 349.923L516.189 349.916C516.076 349.648 516.11 349.419 516.181 349.311C516.183 349.307 516.186 349.304 516.188 349.301C516.186 349.304 516.183 349.307 516.181 349.311Z" fill="#727785"/>
<path d="M516.629 349.436C516.565 349.55 516.418 349.585 516.347 349.597L516.345 349.582C516.494 349.571 516.594 349.497 516.629 349.436C516.63 349.434 516.631 349.432 516.633 349.43C516.632 349.432 516.63 349.434 516.629 349.436Z" fill="#727785"/>
<path d="M515.863 349.77C515.786 349.996 515.925 350.249 516.002 350.367L516.026 350.352C515.848 350.123 515.823 349.893 515.863 349.77C515.865 349.766 515.866 349.762 515.867 349.758C515.866 349.762 515.865 349.766 515.863 349.77Z" fill="#727785"/>
<path d="M516.619 349.849C516.504 350.058 516.223 350.125 516.084 350.147L516.078 350.119C516.368 350.097 516.556 349.962 516.619 349.849C516.621 349.845 516.623 349.842 516.625 349.838C516.623 349.842 516.621 349.845 516.619 349.849Z" fill="#727785"/>
<path d="M516.663 350.302C516.503 350.605 516.125 350.709 515.94 350.745L515.933 350.706C516.32 350.665 516.575 350.465 516.663 350.302C516.666 350.296 516.669 350.291 516.671 350.286C516.669 350.291 516.666 350.296 516.663 350.302Z" fill="#727785"/>
<path d="M2 367.039H597.773" stroke="#20242E" stroke-width="4" stroke-linecap="round" stroke-linejoin="round"/>
<rect x="203.073" y="201.712" width="117.665" height="162.348" fill="#7F27D2"/>
<rect x="185.2" y="160.008" width="153.6" height="42.2956" rx="1.99278" fill="#A855F7"/>
<path d="M209.687 196.876C209.687 195.775 210.579 194.883 211.68 194.883H269.283C270.383 194.883 271.276 195.775 271.276 196.876V202.303H209.687V196.876Z" fill="white"/>
<rect x="283.148" y="175.59" width="28.9391" height="4.45217" rx="0.498195" fill="white"/>
<circle cx="193.363" cy="168.17" r="2.22608" fill="#FF4343"/>
<circle cx="208.203" cy="168.17" r="2.22608" fill="#28C760"/>
<circle cx="200.783" cy="168.17" r="2.22608" fill="#FFA113"/>
<circle cx="320.991" cy="177.816" r="5.93622" fill="white"/>
<rect x="185.2" y="211.218" width="153.6" height="42.2956" rx="1.99278" fill="#A855F7"/>
<path d="M209.687 248.087C209.687 246.986 210.579 246.094 211.68 246.094H269.283C270.383 246.094 271.276 246.986 271.276 248.087V253.514H209.687V248.087Z" fill="white"/>
<rect x="283.148" y="226.801" width="28.9391" height="4.45217" rx="0.498195" fill="white"/>
<circle cx="193.363" cy="219.381" r="2.22608" fill="#FF4343"/>
<circle cx="208.203" cy="219.381" r="2.22608" fill="#28C760"/>
<circle cx="200.783" cy="219.381" r="2.22608" fill="#FFA113"/>
<circle cx="320.991" cy="229.027" r="5.93622" fill="white"/>
<rect x="185.2" y="262.429" width="153.6" height="42.2956" rx="1.99278" fill="#A855F7"/>
<path d="M209.687 299.297C209.687 298.196 210.579 297.304 211.68 297.304H269.283C270.383 297.304 271.276 298.196 271.276 299.297V304.724H209.687V299.297Z" fill="white"/>
<rect x="283.148" y="278.012" width="28.9391" height="4.45217" rx="0.498195" fill="white"/>
<circle cx="193.363" cy="270.591" r="2.22608" fill="#FF4343"/>
<circle cx="208.203" cy="270.591" r="2.22608" fill="#28C760"/>
<circle cx="200.783" cy="270.591" r="2.22608" fill="#FFA113"/>
<circle cx="320.991" cy="280.238" r="5.93622" fill="white"/>
<rect x="185.2" y="313.64" width="153.6" height="42.2956" rx="1.99278" fill="#A855F7"/>
<path d="M209.687 350.508C209.687 349.407 210.579 348.515 211.68 348.515H269.283C270.383 348.515 271.276 349.407 271.276 350.508V355.935H209.687V350.508Z" fill="white"/>
<rect x="283.148" y="329.223" width="28.9391" height="4.45217" rx="0.498195" fill="white"/>
<circle cx="193.363" cy="321.802" r="2.22608" fill="#FF4343"/>
<circle cx="208.203" cy="321.802" r="2.22608" fill="#28C760"/>
<circle cx="200.783" cy="321.802" r="2.22608" fill="#FFA113"/>
<circle cx="320.991" cy="331.448" r="5.93622" fill="white"/>
<rect x="392.231" y="235.969" width="35.7464" height="35.7464" rx="1.82606" fill="#A855F7"/>
<path opacity="0.1" fill-rule="evenodd" clip-rule="evenodd" d="M421.027 235.983C418.912 250.106 406.871 260.984 392.231 261.289V237.795C392.231 236.786 393.049 235.969 394.058 235.969H420.798C420.876 235.969 420.952 235.974 421.027 235.983Z" fill="white"/>
<rect x="397.106" y="240.843" width="25.9974" height="25.9974" rx="12.9987" fill="#334680"/>
<rect x="403.605" y="251.405" width="4.87451" height="4.87451" rx="2.43725" fill="#20242E"/>
<rect x="411.729" y="251.405" width="4.87451" height="4.87451" rx="2.43725" fill="#20242E"/>
<path fill-rule="evenodd" clip-rule="evenodd" d="M338.612 288.109H404.892C411.055 288.109 416.052 293.106 416.052 299.27C416.052 305.433 411.055 310.43 404.892 310.43L379.109 310.43L377.556 310.43H365.422C359.658 310.43 354.985 315.102 354.985 320.866C354.985 326.63 359.658 331.303 365.422 331.303L419.041 331.303V328.303L365.422 328.303C361.314 328.303 357.985 324.974 357.985 320.866C357.985 316.759 361.314 313.43 365.422 313.43H377.556L379.109 313.43L404.892 313.43C412.712 313.43 419.052 307.09 419.052 299.27C419.052 291.449 412.712 285.109 404.892 285.109H338.612V288.109Z" fill="#334680"/>
<path d="M430.957 323.845H438.404C439.226 323.845 439.893 324.512 439.893 325.335V325.335C439.893 326.157 439.226 326.824 438.404 326.824H430.957V323.845Z" fill="#7F27D2"/>
<path d="M430.957 332.782H438.404C439.226 332.782 439.893 333.449 439.893 334.271V334.271C439.893 335.094 439.226 335.761 438.404 335.761H430.957V332.782Z" fill="#7F27D2"/>
<path d="M411.594 328.8C411.594 324.79 414.844 321.54 418.854 321.54H427.552V337.76H418.854C414.844 337.76 411.594 334.509 411.594 330.5V328.8Z" fill="#7F27D2"/>
<rect x="426.488" y="319.377" width="4.4683" height="20.8521" rx="0.72601" fill="#A855F7"/>
<rect x="435.425" y="301.504" width="1.48406" height="8.90433" rx="0.742028" fill="#4D79FF"/>
<rect x="442.104" y="317.086" width="1.48406" height="8.90433" rx="0.742028" transform="rotate(-90 442.104 317.086)" fill="#4D79FF"/>
<rect x="440.927" y="312.56" width="1.48406" height="8.90433" rx="0.742028" transform="rotate(-135 440.927 312.56)" fill="#4D79FF"/>
<rect x="425.687" y="360.28" width="1.48406" height="8.90433" rx="0.742028" transform="rotate(-180 425.687 360.28)" fill="#4D79FF"/>
<rect x="419.009" y="344.697" width="1.48406" height="8.90433" rx="0.742028" transform="rotate(90 419.009 344.697)" fill="#4D79FF"/>
<rect x="420.185" y="349.224" width="1.48406" height="8.90433" rx="0.742028" transform="rotate(45 420.185 349.224)" fill="#4D79FF"/>
<path opacity="0.1" fill-rule="evenodd" clip-rule="evenodd" d="M270.836 202.303C271.333 196.711 271.587 191.049 271.587 185.328C271.587 176.742 271.015 168.29 269.907 160.008L188.168 160.008C186.529 160.008 185.2 161.337 185.2 162.976V199.335C185.2 200.974 186.529 202.303 188.168 202.303H209.687H270.836ZM269.83 211.218H188.168C186.529 211.218 185.2 212.547 185.2 214.187V250.546C185.2 252.185 186.529 253.514 188.168 253.514H258.925C264.115 240.089 267.818 225.923 269.83 211.218ZM255.212 262.429H188.168C186.529 262.429 185.2 263.758 185.2 265.397V301.757C185.2 303.396 186.529 304.725 188.168 304.725L209.687 304.725H229.152C239.591 291.912 248.385 277.706 255.212 262.429ZM221.416 313.64H188.168C186.529 313.64 185.2 314.968 185.2 316.608V344.159C198.521 335.522 210.687 325.255 221.416 313.64Z" fill="white"/>
</svg>
