<svg width="756" height="982" viewBox="0 0 756 982" fill="none" xmlns="http://www.w3.org/2000/svg">
<mask id="mask0_95_1584" style="mask-type:alpha" maskUnits="userSpaceOnUse" x="0" y="0" width="756" height="982">
<rect width="756" height="982" fill="#A855F7"/>
</mask>
<g mask="url(#mask0_95_1584)">
<rect x="562.515" y="32.6622" width="120.2" height="201.425" transform="rotate(30 562.515 32.6622)" stroke="#7F27D2"/>
<rect x="345.83" y="308.859" width="112.82" height="161.766" transform="rotate(30 345.83 308.859)" stroke="#7F27D2"/>
<rect x="372.585" y="-76.9943" width="219.313" height="103.322" transform="rotate(30 372.585 -76.9943)" stroke="#7F27D2"/>
<rect x="96.5464" y="164.935" width="287.848" height="161.766" transform="rotate(30 96.5464 164.935)" stroke="#7F27D2"/>
<rect x="320.924" y="12.4847" width="120.2" height="244.215" transform="rotate(30 320.924 12.4847)" stroke="#7F27D2"/>
<rect x="118.847" y="364.602" width="120.2" height="194.119" transform="rotate(30 118.847 364.602)" stroke="#7F27D2"/>
<rect x="715.664" y="7.80249" width="203.497" height="201.425" transform="rotate(30 715.664 7.80249)" stroke="#7F27D2"/>
<rect x="867.371" y="152.031" width="181.355" height="302.659" transform="rotate(30 867.371 152.031)" stroke="#7F27D2"/>
<rect x="614.951" y="182.241" width="99.1126" height="98.1033" transform="rotate(30 614.951 182.241)" stroke="#7F27D2"/>
<rect x="222.943" y="424.702" width="161.322" height="98.1033" transform="rotate(30 222.943 424.702)" stroke="#7F27D2"/>
<rect x="173.892" y="509.662" width="324.752" height="96.016" transform="rotate(30 173.892 509.662)" stroke="#7F27D2"/>
<rect x="584.088" y="746.489" width="324.752" height="96.016" transform="rotate(30 584.088 746.489)" stroke="#7F27D2"/>
<rect x="255.675" y="775.003" width="269.924" height="96.016" transform="rotate(30 255.675 775.003)" stroke="#7F27D2"/>
<rect x="425.021" y="72.585" width="99.1126" height="98.1033" transform="rotate(30 425.021 72.585)" stroke="#7F27D2"/>
<rect x="270.492" y="-136.348" width="118" height="104" transform="rotate(30 270.492 -136.348)" stroke="#7F27D2"/>
<rect x="145.492" y="80.1582" width="118" height="98" transform="rotate(30 145.492 80.1582)" stroke="#7F27D2"/>
<rect y="-3.8418" width="168" height="260" transform="rotate(30 0 -3.8418)" stroke="#7F27D2"/>
<rect x="516.591" y="238.733" width="156.05" height="205.599" transform="rotate(30 516.591 238.733)" stroke="#7F27D2"/>
<rect x="455.135" y="672.038" width="148.669" height="188.901" transform="rotate(30 455.135 672.038)" stroke="#7F27D2"/>
<rect x="375.969" y="157.545" width="162.376" height="146.111" transform="rotate(30 375.969 157.545)" stroke="#7F27D2"/>
<rect x="-158.584" y="428.834" width="369" height="146" transform="rotate(30 -158.584 428.834)" stroke="#7F27D2"/>
<rect x="-154.452" y="599.677" width="442.844" height="146.111" transform="rotate(30 -154.452 599.677)" stroke="#7F27D2"/>
<rect x="161.496" y="613.375" width="162.376" height="146.111" transform="rotate(30 161.496 613.375)" stroke="#7F27D2"/>
<rect x="535.968" y="829.834" width="162" height="189" transform="rotate(30 535.968 829.834)" stroke="#7F27D2"/>
<rect x="302.117" y="694.563" width="121.255" height="92.885" transform="rotate(30 302.117 694.563)" stroke="#7F27D2"/>
<rect x="312.431" y="919.012" width="311" height="103" transform="rotate(30 312.431 919.012)" stroke="#7F27D2"/>
<rect x="676.376" y="910.641" width="121.255" height="92.885" transform="rotate(30 676.376 910.641)" stroke="#7F27D2"/>
<rect x="207.667" y="858.156" width="121.255" height="103.322" transform="rotate(30 207.667 858.156)" stroke="#7F27D2"/>
<rect x="625.642" y="361.949" width="285.74" height="153.417" transform="rotate(30 625.642 361.949)" stroke="#7F27D2"/>
<rect x="73" y="-130.281" width="286" height="146" transform="rotate(30 73 -130.281)" stroke="#7F27D2"/>
<rect x="414.268" y="416.624" width="207" height="201" transform="rotate(30 414.268 416.624)" stroke="#7F27D2"/>
<rect x="684.468" y="572.624" width="207" height="201" transform="rotate(30 684.468 572.624)" stroke="#7F27D2"/>
<rect x="-60.718" y="261.325" width="207" height="194" transform="rotate(30 -60.718 261.325)" stroke="#7F27D2"/>
<rect x="700.785" y="231.798" width="104.385" height="150.286" transform="rotate(30 700.785 231.798)" stroke="#7F27D2"/>
<rect x="593.677" y="520.645" width="104.385" height="200.381" transform="rotate(30 593.677 520.645)" stroke="#7F27D2"/>
</g>
</svg>
